<?xml version="1.0" encoding="UTF-8" standalone="no"?>
<!DOCTYPE svg PUBLIC "-//W3C//DTD SVG 1.1//EN" "http://www.w3.org/Graphics/SVG/1.1/DTD/svg11.dtd">
<svg width="100%" height="100%" viewBox="0 0 800 600" version="1.1" xmlns="http://www.w3.org/2000/svg" xmlns:xlink="http://www.w3.org/1999/xlink" xml:space="preserve" xmlns:serif="http://www.serif.com/" style="fill-rule:evenodd;clip-rule:evenodd;stroke-linecap:round;stroke-linejoin:round;stroke-miterlimit:1.5;">
    <g transform="matrix(1.51217,0,0,1.51217,-262.064,-77.4651)">
        <path d="M225.14,201.399L347.657,202.238L413.951,292.028L183.182,292.028L225.14,201.399Z" style="fill:url(#_Linear1);stroke:black;stroke-width:0.66px;"/>
        <path d="M398.846,80.559L520.525,80.559L346.818,202.238L225.224,201.358L398.846,80.559Z" style="fill:url(#_Linear2);stroke:black;stroke-width:0.66px;"/>
        <path d="M346.818,202.238L413.989,291.937L575.257,130.668L520.798,80.702L346.818,202.238" style="fill:url(#_Linear3);stroke:black;stroke-width:0.66px;"/>
    </g>
    <g transform="matrix(1.51217,0,0,1.51217,-81.8723,57.0442)">
        <path d="M225.14,201.399L347.657,202.238L413.951,292.028L183.182,292.028L225.14,201.399Z" style="fill:url(#_Linear4);stroke:black;stroke-width:0.66px;"/>
        <path d="M398.846,80.559L520.525,80.559L346.818,202.238L225.224,201.358L398.846,80.559Z" style="fill:url(#_Linear5);stroke:black;stroke-width:0.66px;"/>
        <path d="M346.818,202.238L413.989,291.937L575.257,130.668L520.798,80.702L346.818,202.238" style="fill:url(#_Linear6);stroke:black;stroke-width:0.66px;"/>
    </g>
    <g>
        <g transform="matrix(29.134,-39.0302,39.0302,29.134,327.857,181.714)">
            <path d="M-1.301,-1.58L-1.2,-1.32L-1.148,-1.319L-1.243,-1.563L-1.301,-1.58ZM-0.996,-1.506L-1.125,-1.523C-1.12,-1.493 -1.11,-1.453 -1.095,-1.404C-1.08,-1.355 -1.064,-1.31 -1.048,-1.27C-1.107,-1.27 -1.155,-1.271 -1.193,-1.273C-1.231,-1.275 -1.277,-1.28 -1.332,-1.289C-1.387,-1.298 -1.449,-1.313 -1.518,-1.333C-1.632,-1.367 -1.738,-1.411 -1.835,-1.465C-1.933,-1.518 -2.019,-1.577 -2.094,-1.64C-2.168,-1.703 -2.23,-1.767 -2.279,-1.832C-2.329,-1.897 -2.365,-1.959 -2.387,-2.016C-2.414,-2.084 -2.424,-2.145 -2.418,-2.197C-2.412,-2.25 -2.389,-2.292 -2.35,-2.324C-2.31,-2.355 -2.254,-2.371 -2.18,-2.374C-2.106,-2.376 -2.015,-2.361 -1.908,-2.329C-1.891,-2.324 -1.878,-2.32 -1.868,-2.317C-1.858,-2.313 -1.846,-2.309 -1.832,-2.305C-1.817,-2.3 -1.797,-2.293 -1.773,-2.285C-1.701,-2.261 -1.633,-2.239 -1.57,-2.22C-1.512,-2.202 -1.465,-2.19 -1.429,-2.181L-1.33,-1.955L-1.342,-1.959L-1.456,-2.124C-1.48,-2.135 -1.509,-2.148 -1.544,-2.162C-1.579,-2.177 -1.617,-2.192 -1.66,-2.208C-1.703,-2.224 -1.748,-2.239 -1.796,-2.253C-1.898,-2.284 -1.981,-2.298 -2.046,-2.295C-2.111,-2.292 -2.158,-2.276 -2.186,-2.248C-2.215,-2.219 -2.23,-2.182 -2.231,-2.136C-2.232,-2.091 -2.222,-2.042 -2.201,-1.988C-2.177,-1.927 -2.14,-1.865 -2.089,-1.802C-2.039,-1.74 -1.979,-1.679 -1.909,-1.621C-1.839,-1.564 -1.764,-1.513 -1.684,-1.468C-1.604,-1.423 -1.524,-1.389 -1.444,-1.365C-1.423,-1.359 -1.402,-1.353 -1.38,-1.349C-1.359,-1.344 -1.337,-1.339 -1.315,-1.335C-1.293,-1.331 -1.267,-1.326 -1.238,-1.321C-1.242,-1.357 -1.252,-1.397 -1.269,-1.441C-1.293,-1.501 -1.317,-1.551 -1.343,-1.589L-1.576,-1.68L-1.579,-1.688L-0.999,-1.514L-0.996,-1.506ZM-1.793,-2.273L-1.795,-2.278C-1.835,-2.293 -1.871,-2.305 -1.902,-2.314C-1.996,-2.342 -2.077,-2.355 -2.147,-2.354C-2.216,-2.353 -2.271,-2.338 -2.311,-2.311C-2.351,-2.283 -2.374,-2.243 -2.382,-2.19C-2.389,-2.138 -2.379,-2.076 -2.352,-2.006C-2.319,-1.923 -2.263,-1.838 -2.181,-1.751C-2.1,-1.664 -2,-1.585 -1.883,-1.513C-1.766,-1.441 -1.64,-1.385 -1.503,-1.344C-1.477,-1.336 -1.443,-1.328 -1.401,-1.319L-1.403,-1.324C-1.53,-1.362 -1.645,-1.408 -1.747,-1.462C-1.849,-1.517 -1.937,-1.576 -2.012,-1.639C-2.086,-1.703 -2.146,-1.766 -2.193,-1.829C-2.24,-1.892 -2.274,-1.951 -2.296,-2.007C-2.323,-2.075 -2.333,-2.134 -2.327,-2.183C-2.321,-2.232 -2.298,-2.269 -2.26,-2.295C-2.221,-2.321 -2.165,-2.333 -2.091,-2.331C-2.017,-2.33 -1.928,-2.313 -1.824,-2.282L-1.793,-2.273Z" style="fill-rule:nonzero;"/>
        </g>
        <g transform="matrix(29.134,-39.0302,39.0302,29.134,351.542,149.983)">
            <path d="M-1.278,-1.896C-1.155,-1.859 -1.042,-1.812 -0.939,-1.753C-0.836,-1.695 -0.746,-1.631 -0.669,-1.563C-0.591,-1.495 -0.528,-1.428 -0.478,-1.362C-0.429,-1.297 -0.394,-1.238 -0.374,-1.185C-0.35,-1.124 -0.342,-1.07 -0.35,-1.021C-0.357,-0.972 -0.382,-0.932 -0.422,-0.901C-0.463,-0.871 -0.521,-0.854 -0.598,-0.852C-0.674,-0.849 -0.766,-0.864 -0.874,-0.896C-1.03,-0.943 -1.172,-1.008 -1.3,-1.092C-1.429,-1.176 -1.534,-1.264 -1.615,-1.356C-1.696,-1.448 -1.751,-1.53 -1.779,-1.603C-1.805,-1.667 -1.813,-1.725 -1.803,-1.775C-1.794,-1.826 -1.768,-1.866 -1.724,-1.895C-1.681,-1.924 -1.621,-1.939 -1.544,-1.94C-1.468,-1.941 -1.379,-1.927 -1.278,-1.896ZM-1.255,-1.848C-1.344,-1.875 -1.42,-1.882 -1.482,-1.869C-1.544,-1.856 -1.585,-1.822 -1.603,-1.767C-1.621,-1.713 -1.613,-1.639 -1.577,-1.547C-1.538,-1.448 -1.48,-1.356 -1.405,-1.273C-1.329,-1.19 -1.246,-1.12 -1.157,-1.064C-1.067,-1.008 -0.982,-0.968 -0.9,-0.943C-0.833,-0.924 -0.774,-0.914 -0.722,-0.916C-0.67,-0.918 -0.628,-0.93 -0.596,-0.954C-0.563,-0.977 -0.545,-1.013 -0.54,-1.06C-0.535,-1.106 -0.546,-1.164 -0.572,-1.231C-0.608,-1.323 -0.651,-1.401 -0.7,-1.465C-0.749,-1.528 -0.809,-1.588 -0.879,-1.646C-0.938,-1.695 -1,-1.736 -1.065,-1.77C-1.129,-1.803 -1.193,-1.83 -1.255,-1.848ZM-1.221,-1.862L-1.218,-1.856C-1.161,-1.836 -1.101,-1.809 -1.037,-1.775C-0.974,-1.741 -0.91,-1.698 -0.847,-1.647C-0.783,-1.596 -0.724,-1.535 -0.67,-1.465C-0.616,-1.395 -0.572,-1.317 -0.539,-1.231C-0.517,-1.174 -0.505,-1.123 -0.502,-1.077C-0.5,-1.031 -0.509,-0.992 -0.532,-0.96C-0.554,-0.928 -0.591,-0.907 -0.643,-0.898C-0.695,-0.888 -0.764,-0.893 -0.849,-0.913L-0.846,-0.906C-0.773,-0.886 -0.707,-0.877 -0.649,-0.879C-0.591,-0.881 -0.544,-0.894 -0.508,-0.919C-0.472,-0.945 -0.451,-0.982 -0.443,-1.032C-0.436,-1.081 -0.447,-1.142 -0.475,-1.214C-0.505,-1.292 -0.548,-1.366 -0.603,-1.436C-0.657,-1.505 -0.72,-1.568 -0.789,-1.624C-0.858,-1.68 -0.93,-1.728 -1.004,-1.768C-1.077,-1.809 -1.15,-1.84 -1.221,-1.862ZM-1.303,-1.881L-1.306,-1.888C-1.387,-1.912 -1.461,-1.922 -1.528,-1.919C-1.594,-1.916 -1.648,-1.9 -1.689,-1.873C-1.73,-1.846 -1.756,-1.808 -1.766,-1.761C-1.777,-1.713 -1.769,-1.658 -1.745,-1.595C-1.715,-1.518 -1.658,-1.434 -1.575,-1.345C-1.492,-1.256 -1.393,-1.174 -1.278,-1.099C-1.164,-1.024 -1.048,-0.968 -0.931,-0.931L-0.934,-0.938C-1.049,-0.98 -1.159,-1.036 -1.263,-1.108C-1.368,-1.18 -1.456,-1.257 -1.527,-1.339C-1.599,-1.42 -1.649,-1.498 -1.677,-1.571C-1.701,-1.632 -1.71,-1.686 -1.706,-1.733C-1.702,-1.781 -1.683,-1.819 -1.651,-1.848C-1.619,-1.877 -1.573,-1.894 -1.514,-1.9C-1.455,-1.907 -1.385,-1.9 -1.303,-1.881Z" style="fill-rule:nonzero;"/>
        </g>
        <g transform="matrix(29.134,-39.0302,39.0302,29.134,376.75,116.213)">
            <path d="M-1.069,-1.541L-0.709,-0.617L-0.648,-0.599L-1.009,-1.523L-1.069,-1.541ZM-1.34,-1.638L-1.342,-1.644L-0.686,-1.448L-0.683,-1.441L-0.889,-1.482C-0.88,-1.442 -0.864,-1.386 -0.84,-1.314C-0.817,-1.243 -0.795,-1.18 -0.774,-1.125L-0.662,-0.839C-0.635,-0.77 -0.602,-0.697 -0.564,-0.619C-0.456,-0.566 -0.349,-0.523 -0.243,-0.492C-0.193,-0.477 -0.146,-0.465 -0.105,-0.456C-0.064,-0.448 -0.036,-0.443 -0.02,-0.442L-0.001,-0.597L0.012,-0.593L0.066,-0.362L-0.964,-0.67L-0.966,-0.677L-0.768,-0.638C-0.769,-0.657 -0.778,-0.693 -0.794,-0.747C-0.811,-0.8 -0.829,-0.855 -0.849,-0.912C-0.868,-0.969 -0.883,-1.01 -0.892,-1.034L-0.958,-1.202C-0.972,-1.239 -0.99,-1.281 -1.011,-1.33C-1.032,-1.378 -1.051,-1.421 -1.068,-1.458C-1.085,-1.495 -1.101,-1.525 -1.115,-1.55L-1.34,-1.638Z" style="fill-rule:nonzero;"/>
        </g>
        <g transform="matrix(29.134,-39.0302,39.0302,29.134,394.959,91.8188)">
            <path d="M-0.857,-1.312L-0.143,-1.099C-0.009,-1.059 0.11,-1.01 0.215,-0.953C0.32,-0.895 0.409,-0.834 0.481,-0.771C0.554,-0.707 0.613,-0.644 0.658,-0.581C0.703,-0.518 0.737,-0.458 0.76,-0.4C0.787,-0.33 0.797,-0.269 0.791,-0.218C0.784,-0.167 0.76,-0.128 0.72,-0.101C0.681,-0.074 0.627,-0.06 0.559,-0.059C0.491,-0.059 0.41,-0.072 0.318,-0.1L-0.482,-0.339L-0.485,-0.346L-0.283,-0.306C-0.288,-0.341 -0.304,-0.401 -0.332,-0.486C-0.361,-0.572 -0.385,-0.639 -0.404,-0.689L-0.472,-0.864C-0.522,-0.993 -0.575,-1.11 -0.63,-1.217L-0.855,-1.306L-0.857,-1.312ZM-0.315,-0.855L-0.163,-0.467C-0.141,-0.409 -0.114,-0.35 -0.083,-0.288C-0.04,-0.264 0.005,-0.242 0.055,-0.221C0.104,-0.201 0.152,-0.184 0.199,-0.17C0.264,-0.151 0.324,-0.141 0.38,-0.141C0.436,-0.141 0.482,-0.152 0.518,-0.173C0.554,-0.195 0.577,-0.23 0.585,-0.278C0.593,-0.326 0.583,-0.386 0.555,-0.46C0.524,-0.537 0.482,-0.609 0.428,-0.675C0.373,-0.742 0.31,-0.801 0.239,-0.855C0.168,-0.908 0.092,-0.954 0.012,-0.994C-0.068,-1.033 -0.149,-1.065 -0.23,-1.089C-0.295,-1.108 -0.352,-1.121 -0.401,-1.125C-0.398,-1.109 -0.392,-1.086 -0.383,-1.056C-0.373,-1.026 -0.362,-0.99 -0.348,-0.948C-0.334,-0.907 -0.323,-0.876 -0.315,-0.855ZM-0.584,-1.208L-0.224,-0.285L-0.163,-0.267L-0.523,-1.189L-0.584,-1.208ZM-0.274,-1.124L-0.271,-1.117C-0.187,-1.092 -0.109,-1.064 -0.038,-1.033C0.033,-1.002 0.095,-0.97 0.148,-0.937C0.201,-0.904 0.249,-0.87 0.292,-0.835C0.336,-0.799 0.377,-0.76 0.415,-0.718C0.453,-0.677 0.487,-0.633 0.518,-0.587C0.548,-0.541 0.573,-0.495 0.591,-0.448C0.631,-0.345 0.636,-0.267 0.605,-0.214C0.575,-0.161 0.524,-0.131 0.452,-0.124C0.38,-0.116 0.306,-0.124 0.23,-0.147L0.164,-0.166L0.167,-0.16L0.233,-0.14C0.359,-0.102 0.46,-0.091 0.536,-0.105C0.612,-0.12 0.66,-0.156 0.679,-0.214C0.699,-0.271 0.692,-0.342 0.659,-0.425C0.63,-0.5 0.588,-0.571 0.531,-0.64C0.474,-0.708 0.413,-0.769 0.347,-0.823C0.204,-0.943 0.014,-1.038 -0.221,-1.108L-0.274,-1.124Z" style="fill-rule:nonzero;"/>
        </g>
    </g>
    <g transform="matrix(1,0,0,1,197.203,136.364)">
        <g transform="matrix(29.134,-39.0302,39.0302,29.134,327.857,181.714)">
            <path d="M-1.301,-1.58L-1.2,-1.32L-1.148,-1.319L-1.243,-1.563L-1.301,-1.58ZM-0.996,-1.506L-1.125,-1.523C-1.12,-1.493 -1.11,-1.453 -1.095,-1.404C-1.08,-1.355 -1.064,-1.31 -1.048,-1.27C-1.107,-1.27 -1.155,-1.271 -1.193,-1.273C-1.231,-1.275 -1.277,-1.28 -1.332,-1.289C-1.387,-1.298 -1.449,-1.313 -1.518,-1.333C-1.632,-1.367 -1.738,-1.411 -1.835,-1.465C-1.933,-1.518 -2.019,-1.577 -2.094,-1.64C-2.168,-1.703 -2.23,-1.767 -2.279,-1.832C-2.329,-1.897 -2.365,-1.959 -2.387,-2.016C-2.414,-2.084 -2.424,-2.145 -2.418,-2.197C-2.412,-2.25 -2.389,-2.292 -2.35,-2.324C-2.31,-2.355 -2.254,-2.371 -2.18,-2.374C-2.106,-2.376 -2.015,-2.361 -1.908,-2.329C-1.891,-2.324 -1.878,-2.32 -1.868,-2.317C-1.858,-2.313 -1.846,-2.309 -1.832,-2.305C-1.817,-2.3 -1.797,-2.293 -1.773,-2.285C-1.701,-2.261 -1.633,-2.239 -1.57,-2.22C-1.512,-2.202 -1.465,-2.19 -1.429,-2.181L-1.33,-1.955L-1.342,-1.959L-1.456,-2.124C-1.48,-2.135 -1.509,-2.148 -1.544,-2.162C-1.579,-2.177 -1.617,-2.192 -1.66,-2.208C-1.703,-2.224 -1.748,-2.239 -1.796,-2.253C-1.898,-2.284 -1.981,-2.298 -2.046,-2.295C-2.111,-2.292 -2.158,-2.276 -2.186,-2.248C-2.215,-2.219 -2.23,-2.182 -2.231,-2.136C-2.232,-2.091 -2.222,-2.042 -2.201,-1.988C-2.177,-1.927 -2.14,-1.865 -2.089,-1.802C-2.039,-1.74 -1.979,-1.679 -1.909,-1.621C-1.839,-1.564 -1.764,-1.513 -1.684,-1.468C-1.604,-1.423 -1.524,-1.389 -1.444,-1.365C-1.423,-1.359 -1.402,-1.353 -1.38,-1.349C-1.359,-1.344 -1.337,-1.339 -1.315,-1.335C-1.293,-1.331 -1.267,-1.326 -1.238,-1.321C-1.242,-1.357 -1.252,-1.397 -1.269,-1.441C-1.293,-1.501 -1.317,-1.551 -1.343,-1.589L-1.576,-1.68L-1.579,-1.688L-0.999,-1.514L-0.996,-1.506ZM-1.793,-2.273L-1.795,-2.278C-1.835,-2.293 -1.871,-2.305 -1.902,-2.314C-1.996,-2.342 -2.077,-2.355 -2.147,-2.354C-2.216,-2.353 -2.271,-2.338 -2.311,-2.311C-2.351,-2.283 -2.374,-2.243 -2.382,-2.19C-2.389,-2.138 -2.379,-2.076 -2.352,-2.006C-2.319,-1.923 -2.263,-1.838 -2.181,-1.751C-2.1,-1.664 -2,-1.585 -1.883,-1.513C-1.766,-1.441 -1.64,-1.385 -1.503,-1.344C-1.477,-1.336 -1.443,-1.328 -1.401,-1.319L-1.403,-1.324C-1.53,-1.362 -1.645,-1.408 -1.747,-1.462C-1.849,-1.517 -1.937,-1.576 -2.012,-1.639C-2.086,-1.703 -2.146,-1.766 -2.193,-1.829C-2.24,-1.892 -2.274,-1.951 -2.296,-2.007C-2.323,-2.075 -2.333,-2.134 -2.327,-2.183C-2.321,-2.232 -2.298,-2.269 -2.26,-2.295C-2.221,-2.321 -2.165,-2.333 -2.091,-2.331C-2.017,-2.33 -1.928,-2.313 -1.824,-2.282L-1.793,-2.273Z" style="fill-rule:nonzero;"/>
        </g>
        <g transform="matrix(29.134,-39.0302,39.0302,29.134,351.542,149.983)">
            <path d="M-1.278,-1.896C-1.155,-1.859 -1.042,-1.812 -0.939,-1.753C-0.836,-1.695 -0.746,-1.631 -0.669,-1.563C-0.591,-1.495 -0.528,-1.428 -0.478,-1.362C-0.429,-1.297 -0.394,-1.238 -0.374,-1.185C-0.35,-1.124 -0.342,-1.07 -0.35,-1.021C-0.357,-0.972 -0.382,-0.932 -0.422,-0.901C-0.463,-0.871 -0.521,-0.854 -0.598,-0.852C-0.674,-0.849 -0.766,-0.864 -0.874,-0.896C-1.03,-0.943 -1.172,-1.008 -1.3,-1.092C-1.429,-1.176 -1.534,-1.264 -1.615,-1.356C-1.696,-1.448 -1.751,-1.53 -1.779,-1.603C-1.805,-1.667 -1.813,-1.725 -1.803,-1.775C-1.794,-1.826 -1.768,-1.866 -1.724,-1.895C-1.681,-1.924 -1.621,-1.939 -1.544,-1.94C-1.468,-1.941 -1.379,-1.927 -1.278,-1.896ZM-1.255,-1.848C-1.344,-1.875 -1.42,-1.882 -1.482,-1.869C-1.544,-1.856 -1.585,-1.822 -1.603,-1.767C-1.621,-1.713 -1.613,-1.639 -1.577,-1.547C-1.538,-1.448 -1.48,-1.356 -1.405,-1.273C-1.329,-1.19 -1.246,-1.12 -1.157,-1.064C-1.067,-1.008 -0.982,-0.968 -0.9,-0.943C-0.833,-0.924 -0.774,-0.914 -0.722,-0.916C-0.67,-0.918 -0.628,-0.93 -0.596,-0.954C-0.563,-0.977 -0.545,-1.013 -0.54,-1.06C-0.535,-1.106 -0.546,-1.164 -0.572,-1.231C-0.608,-1.323 -0.651,-1.401 -0.7,-1.465C-0.749,-1.528 -0.809,-1.588 -0.879,-1.646C-0.938,-1.695 -1,-1.736 -1.065,-1.77C-1.129,-1.803 -1.193,-1.83 -1.255,-1.848ZM-1.221,-1.862L-1.218,-1.856C-1.161,-1.836 -1.101,-1.809 -1.037,-1.775C-0.974,-1.741 -0.91,-1.698 -0.847,-1.647C-0.783,-1.596 -0.724,-1.535 -0.67,-1.465C-0.616,-1.395 -0.572,-1.317 -0.539,-1.231C-0.517,-1.174 -0.505,-1.123 -0.502,-1.077C-0.5,-1.031 -0.509,-0.992 -0.532,-0.96C-0.554,-0.928 -0.591,-0.907 -0.643,-0.898C-0.695,-0.888 -0.764,-0.893 -0.849,-0.913L-0.846,-0.906C-0.773,-0.886 -0.707,-0.877 -0.649,-0.879C-0.591,-0.881 -0.544,-0.894 -0.508,-0.919C-0.472,-0.945 -0.451,-0.982 -0.443,-1.032C-0.436,-1.081 -0.447,-1.142 -0.475,-1.214C-0.505,-1.292 -0.548,-1.366 -0.603,-1.436C-0.657,-1.505 -0.72,-1.568 -0.789,-1.624C-0.858,-1.68 -0.93,-1.728 -1.004,-1.768C-1.077,-1.809 -1.15,-1.84 -1.221,-1.862ZM-1.303,-1.881L-1.306,-1.888C-1.387,-1.912 -1.461,-1.922 -1.528,-1.919C-1.594,-1.916 -1.648,-1.9 -1.689,-1.873C-1.73,-1.846 -1.756,-1.808 -1.766,-1.761C-1.777,-1.713 -1.769,-1.658 -1.745,-1.595C-1.715,-1.518 -1.658,-1.434 -1.575,-1.345C-1.492,-1.256 -1.393,-1.174 -1.278,-1.099C-1.164,-1.024 -1.048,-0.968 -0.931,-0.931L-0.934,-0.938C-1.049,-0.98 -1.159,-1.036 -1.263,-1.108C-1.368,-1.18 -1.456,-1.257 -1.527,-1.339C-1.599,-1.42 -1.649,-1.498 -1.677,-1.571C-1.701,-1.632 -1.71,-1.686 -1.706,-1.733C-1.702,-1.781 -1.683,-1.819 -1.651,-1.848C-1.619,-1.877 -1.573,-1.894 -1.514,-1.9C-1.455,-1.907 -1.385,-1.9 -1.303,-1.881Z" style="fill-rule:nonzero;"/>
        </g>
        <g transform="matrix(29.134,-39.0302,39.0302,29.134,376.75,116.213)">
            <path d="M-1.069,-1.541L-0.709,-0.617L-0.648,-0.599L-1.009,-1.523L-1.069,-1.541ZM-1.34,-1.638L-1.342,-1.644L-0.686,-1.448L-0.683,-1.441L-0.889,-1.482C-0.88,-1.442 -0.864,-1.386 -0.84,-1.314C-0.817,-1.243 -0.795,-1.18 -0.774,-1.125L-0.662,-0.839C-0.635,-0.77 -0.602,-0.697 -0.564,-0.619C-0.456,-0.566 -0.349,-0.523 -0.243,-0.492C-0.193,-0.477 -0.146,-0.465 -0.105,-0.456C-0.064,-0.448 -0.036,-0.443 -0.02,-0.442L-0.001,-0.597L0.012,-0.593L0.066,-0.362L-0.964,-0.67L-0.966,-0.677L-0.768,-0.638C-0.769,-0.657 -0.778,-0.693 -0.794,-0.747C-0.811,-0.8 -0.829,-0.855 -0.849,-0.912C-0.868,-0.969 -0.883,-1.01 -0.892,-1.034L-0.958,-1.202C-0.972,-1.239 -0.99,-1.281 -1.011,-1.33C-1.032,-1.378 -1.051,-1.421 -1.068,-1.458C-1.085,-1.495 -1.101,-1.525 -1.115,-1.55L-1.34,-1.638Z" style="fill-rule:nonzero;"/>
        </g>
        <g transform="matrix(29.134,-39.0302,39.0302,29.134,394.959,91.8188)">
            <path d="M-0.857,-1.312L-0.143,-1.099C-0.009,-1.059 0.11,-1.01 0.215,-0.953C0.32,-0.895 0.409,-0.834 0.481,-0.771C0.554,-0.707 0.613,-0.644 0.658,-0.581C0.703,-0.518 0.737,-0.458 0.76,-0.4C0.787,-0.33 0.797,-0.269 0.791,-0.218C0.784,-0.167 0.76,-0.128 0.72,-0.101C0.681,-0.074 0.627,-0.06 0.559,-0.059C0.491,-0.059 0.41,-0.072 0.318,-0.1L-0.482,-0.339L-0.485,-0.346L-0.283,-0.306C-0.288,-0.341 -0.304,-0.401 -0.332,-0.486C-0.361,-0.572 -0.385,-0.639 -0.404,-0.689L-0.472,-0.864C-0.522,-0.993 -0.575,-1.11 -0.63,-1.217L-0.855,-1.306L-0.857,-1.312ZM-0.315,-0.855L-0.163,-0.467C-0.141,-0.409 -0.114,-0.35 -0.083,-0.288C-0.04,-0.264 0.005,-0.242 0.055,-0.221C0.104,-0.201 0.152,-0.184 0.199,-0.17C0.264,-0.151 0.324,-0.141 0.38,-0.141C0.436,-0.141 0.482,-0.152 0.518,-0.173C0.554,-0.195 0.577,-0.23 0.585,-0.278C0.593,-0.326 0.583,-0.386 0.555,-0.46C0.524,-0.537 0.482,-0.609 0.428,-0.675C0.373,-0.742 0.31,-0.801 0.239,-0.855C0.168,-0.908 0.092,-0.954 0.012,-0.994C-0.068,-1.033 -0.149,-1.065 -0.23,-1.089C-0.295,-1.108 -0.352,-1.121 -0.401,-1.125C-0.398,-1.109 -0.392,-1.086 -0.383,-1.056C-0.373,-1.026 -0.362,-0.99 -0.348,-0.948C-0.334,-0.907 -0.323,-0.876 -0.315,-0.855ZM-0.584,-1.208L-0.224,-0.285L-0.163,-0.267L-0.523,-1.189L-0.584,-1.208ZM-0.274,-1.124L-0.271,-1.117C-0.187,-1.092 -0.109,-1.064 -0.038,-1.033C0.033,-1.002 0.095,-0.97 0.148,-0.937C0.201,-0.904 0.249,-0.87 0.292,-0.835C0.336,-0.799 0.377,-0.76 0.415,-0.718C0.453,-0.677 0.487,-0.633 0.518,-0.587C0.548,-0.541 0.573,-0.495 0.591,-0.448C0.631,-0.345 0.636,-0.267 0.605,-0.214C0.575,-0.161 0.524,-0.131 0.452,-0.124C0.38,-0.116 0.306,-0.124 0.23,-0.147L0.164,-0.166L0.167,-0.16L0.233,-0.14C0.359,-0.102 0.46,-0.091 0.536,-0.105C0.612,-0.12 0.66,-0.156 0.679,-0.214C0.699,-0.271 0.692,-0.342 0.659,-0.425C0.63,-0.5 0.588,-0.571 0.531,-0.64C0.474,-0.708 0.413,-0.769 0.347,-0.823C0.204,-0.943 0.014,-1.038 -0.221,-1.108L-0.274,-1.124Z" style="fill-rule:nonzero;"/>
        </g>
    </g>
    <defs>
        <linearGradient id="_Linear1" x1="0" y1="0" x2="1" y2="0" gradientUnits="userSpaceOnUse" gradientTransform="matrix(48.8083,-163.955,163.955,48.8083,297.269,319.562)"><stop offset="0" style="stop-color:white;stop-opacity:1"/><stop offset="1" style="stop-color:rgb(255,245,16);stop-opacity:1"/></linearGradient>
        <linearGradient id="_Linear2" x1="0" y1="0" x2="1" y2="0" gradientUnits="userSpaceOnUse" gradientTransform="matrix(216.2,-35.0595,35.0595,216.2,245.195,174.77)"><stop offset="0" style="stop-color:white;stop-opacity:1"/><stop offset="1" style="stop-color:rgb(255,233,0);stop-opacity:1"/></linearGradient>
        <linearGradient id="_Linear3" x1="0" y1="0" x2="1" y2="0" gradientUnits="userSpaceOnUse" gradientTransform="matrix(109.99,41.5902,-41.5902,109.99,356.904,242.827)"><stop offset="0" style="stop-color:white;stop-opacity:1"/><stop offset="1" style="stop-color:rgb(255,223,0);stop-opacity:1"/></linearGradient>
        <linearGradient id="_Linear4" x1="0" y1="0" x2="1" y2="0" gradientUnits="userSpaceOnUse" gradientTransform="matrix(48.8083,-163.955,163.955,48.8083,297.269,319.562)"><stop offset="0" style="stop-color:white;stop-opacity:1"/><stop offset="1" style="stop-color:rgb(255,245,16);stop-opacity:1"/></linearGradient>
        <linearGradient id="_Linear5" x1="0" y1="0" x2="1" y2="0" gradientUnits="userSpaceOnUse" gradientTransform="matrix(216.2,-35.0595,35.0595,216.2,245.195,174.77)"><stop offset="0" style="stop-color:white;stop-opacity:1"/><stop offset="1" style="stop-color:rgb(255,233,0);stop-opacity:1"/></linearGradient>
        <linearGradient id="_Linear6" x1="0" y1="0" x2="1" y2="0" gradientUnits="userSpaceOnUse" gradientTransform="matrix(109.99,41.5902,-41.5902,109.99,356.904,242.827)"><stop offset="0" style="stop-color:white;stop-opacity:1"/><stop offset="1" style="stop-color:rgb(255,223,0);stop-opacity:1"/></linearGradient>
    </defs>
</svg>
