<?xml version="1.0" encoding="UTF-8" standalone="no"?>
<!DOCTYPE svg PUBLIC "-//W3C//DTD SVG 1.1//EN" "http://www.w3.org/Graphics/SVG/1.1/DTD/svg11.dtd">
<svg width="100%" height="100%" viewBox="0 0 800 600" version="1.1" xmlns="http://www.w3.org/2000/svg" xmlns:xlink="http://www.w3.org/1999/xlink" xml:space="preserve" xmlns:serif="http://www.serif.com/" style="fill-rule:evenodd;clip-rule:evenodd;stroke-linejoin:round;stroke-miterlimit:2;">
    <g>
        <path d="M343.821,445.355C348.999,419.256 358.032,393.23 358.941,366.397C360.705,314.349 342.723,267.84 314.324,225C302.113,206.579 290.211,186.626 270.861,174.992C267.077,172.717 262.158,173.942 259.882,177.726C257.607,181.51 258.832,186.429 262.616,188.704C279.918,199.107 290.07,217.37 300.989,233.841C327.521,273.864 344.598,317.228 342.95,365.855C342.07,391.826 333.139,416.98 328.127,442.241C327.267,446.572 330.086,450.786 334.417,451.645C338.747,452.504 342.961,449.686 343.821,445.355Z" style="fill:rgb(255,236,150);"/>
        <path d="M361.769,441.409C359.797,440.047 358.622,437.513 357.569,434.515C356.059,430.212 355.156,424.986 354.589,419.374C352.708,400.762 354.622,378.219 354.622,367.244C354.622,308.62 365.576,250.371 381.832,194.231C389.222,168.714 394.889,140.819 416.177,123.417C419.595,120.622 420.102,115.578 417.308,112.159C414.513,108.741 409.469,108.234 406.05,111.029C382.21,130.518 374.739,161.203 366.464,189.78C349.79,247.361 338.622,307.116 338.622,367.244C338.622,380.567 336.084,410.272 340.076,430.753C342.224,441.774 346.545,450.339 352.677,454.574C356.31,457.083 361.297,456.171 363.806,452.537C366.315,448.904 365.402,443.918 361.769,441.409Z" style="fill:rgb(255,236,150);"/>
        <path d="M372.167,418.259C360.126,350.691 378.26,259.105 414.357,201.569C417.926,195.88 421.415,190.136 425.205,184.592C430.409,176.977 444.384,156.852 459.404,146.526C466.519,141.634 473.84,138.534 479.874,144.426C483.033,147.511 488.103,147.451 491.187,144.291C494.272,141.132 494.212,136.063 491.052,132.979C479.112,121.32 464.417,123.662 450.339,133.341C433.599,144.851 417.795,167.076 411.995,175.564C408.088,181.281 404.483,187.2 400.803,193.066C362.823,253.605 343.745,349.971 356.415,421.066C357.189,425.413 361.347,428.313 365.694,427.538C370.041,426.764 372.941,422.606 372.167,418.259Z" style="fill:rgb(255,236,150);"/>
        <path d="M352.59,436.648C350.596,414.581 360.431,394.952 365.428,373.738C374.443,335.469 384.676,292.164 382.635,252.639C380.494,211.181 365.181,173.772 322.652,149.419C318.82,147.225 313.928,148.555 311.734,152.386C309.54,156.218 310.87,161.11 314.701,163.304C351.772,184.531 364.79,217.328 366.656,253.464C368.622,291.533 358.537,333.21 349.855,370.07C344.462,392.962 334.503,414.275 336.655,438.088C337.052,442.485 340.945,445.733 345.342,445.335C349.739,444.938 352.987,441.045 352.59,436.648Z" style="fill:rgb(255,236,150);"/>
        <path d="M321.158,402.819C321.358,401.323 321.6,399.7 321.849,398.443C322.9,393.146 324.548,387.923 325.906,382.703C330.47,365.163 332.779,346.759 334.715,328.786C339.727,282.272 339.962,229.336 315.713,187.641C311.716,180.767 305.133,170.551 297.263,163.19C293.012,159.213 288.484,155.943 283.672,155.47C279.278,155.039 276.061,151.121 276.493,146.726C276.924,142.332 280.842,139.115 285.236,139.547C293.206,140.33 301.152,144.92 308.193,151.505C317.258,159.984 324.939,171.678 329.544,179.597C355.487,224.205 355.985,280.737 350.623,330.5C349.201,343.704 347.563,357.127 345.053,370.3C346.491,370.375 347.926,370.839 349.195,371.723C352.818,374.246 353.71,379.237 351.187,382.86C348.575,386.61 344.616,391.423 341.319,396.567C339.443,399.494 337.663,402.487 336.913,405.414C336.56,407.913 336.33,410.138 336.276,410.339C334.432,417.244 328.13,416.388 326.833,416.105C326.356,416.001 320.534,414.92 320.534,408.2C320.534,406.444 320.752,404.643 321.158,402.819Z" style="fill:rgb(255,236,150);"/>
        <path d="M372.857,114.064C372.449,114.499 372.047,114.962 371.728,115.393C369.843,117.934 368.182,121.059 367.026,123.959C356.817,149.575 351.627,177.322 347.022,204.39C337.996,257.439 326.562,359.186 342.817,411.074C344.137,415.287 341.788,419.78 337.575,421.1C333.361,422.419 328.869,420.07 327.549,415.857C310.708,362.098 321.898,256.669 331.249,201.707C336.041,173.54 341.539,144.691 352.163,118.035C355.001,110.914 360.137,103.069 365.131,99.412C368.988,96.587 373.019,95.73 376.652,96.524C380.815,97.435 385.883,100.902 388.56,110.685C389.725,114.944 387.214,119.347 382.955,120.513C378.696,121.678 374.293,119.167 373.127,114.908C373.052,114.633 372.96,114.347 372.857,114.064Z" style="fill:rgb(255,236,150);"/>
        <path d="M345.571,314.782C337.184,347.247 334.077,380.891 328.862,413.991C325.195,437.257 319.911,461.455 322.923,485.067C323.482,489.447 327.491,492.549 331.871,491.991C336.251,491.432 339.353,487.422 338.795,483.043C335.973,460.922 341.232,438.278 344.667,416.481C349.802,383.889 352.804,350.751 361.063,318.785C362.167,314.51 359.593,310.142 355.318,309.038C351.043,307.933 346.676,310.507 345.571,314.782Z" style="fill:rgb(255,236,150);"/>
        <path d="M340.468,451.302C325.998,406.67 340.399,337.061 346.687,291.792C354.386,236.371 352.645,179.271 366.913,124.988C368.035,120.717 365.48,116.339 361.21,115.217C356.939,114.094 352.561,116.65 351.439,120.92C337.009,175.817 338.625,233.543 330.84,289.59C324.271,336.875 310.133,409.618 325.248,456.236C326.61,460.436 331.125,462.741 335.326,461.379C339.526,460.017 341.83,455.502 340.468,451.302Z" style="fill:rgb(255,236,150);"/>
        <path d="M367.309,456.964C349.599,392.413 363.874,319.084 382.965,256.303C397.41,208.797 414.215,164.773 454.518,133.969C458.026,131.288 458.698,126.263 456.016,122.755C453.335,119.247 448.31,118.576 444.802,121.257C401.718,154.186 383.099,200.863 367.657,251.648C347.724,317.197 333.388,393.802 351.879,461.197C353.048,465.455 357.453,467.964 361.711,466.796C365.969,465.627 368.477,461.222 367.309,456.964Z" style="fill:rgb(255,236,150);"/>
        <path d="M428.195,126.706C425.033,127.787 420.17,128.903 415.848,130.523C411.887,132.008 408.344,133.957 405.962,136.269C383.995,157.579 371.47,190.073 364.421,219.099C349.832,279.172 348.317,338.826 353.2,400.399C355.836,433.634 358.216,468.651 371.08,499.74C372.768,503.82 377.451,505.762 381.531,504.074C385.611,502.386 387.553,497.703 385.865,493.623C373.635,464.068 371.656,430.729 369.15,399.134C364.403,339.275 365.786,281.276 379.969,222.875C386.344,196.625 397.237,167.025 417.103,147.753C418.501,146.396 420.926,145.644 423.314,144.857C426.979,143.65 430.759,142.738 433.369,141.846C437.547,140.418 439.78,135.867 438.352,131.689C436.924,127.511 432.373,125.278 428.195,126.706Z" style="fill:rgb(255,236,150);"/>
        <path d="M361.487,464.563C353.93,431.57 365.385,383.284 364.055,347.934C362.072,295.222 351.405,241.89 333.698,192.209C328.344,177.186 321.534,162.647 314.45,148.378C308.041,135.468 302.642,125.576 296.814,119.062C291.953,113.628 286.699,110.258 280.633,108.83C271.678,106.722 260.301,109.053 244.369,117.978C240.517,120.136 239.142,125.015 241.3,128.867C243.458,132.719 248.337,134.095 252.189,131.937C263.221,125.756 270.766,122.945 276.967,124.404C280.966,125.346 284.001,128.289 287.133,132.494C291.353,138.161 295.37,145.926 300.119,155.492C306.922,169.197 313.485,183.152 318.627,197.58C335.791,245.74 346.144,297.437 348.066,348.535C349.43,384.783 338.142,434.305 345.891,468.135C346.877,472.439 351.172,475.133 355.475,474.147C359.779,473.161 362.473,468.867 361.487,464.563Z" style="fill:rgb(255,236,150);"/>
        <path d="M359.364,283.199C350.345,254.692 325.249,226.156 294.918,204.418C264.806,182.836 229.662,167.984 200.871,165.902C196.467,165.583 192.633,168.9 192.314,173.304C191.996,177.707 195.313,181.541 199.717,181.86C226.05,183.764 258.056,197.683 285.598,217.422C312.922,237.006 335.984,262.343 344.109,288.025C345.441,292.235 349.939,294.571 354.149,293.24C358.359,291.908 360.695,287.409 359.364,283.199Z" style="fill:rgb(255,236,150);"/>
        <path d="M385.508,234.934C401.203,194.654 437.836,168.801 481.709,167.714C504.305,167.154 526.305,173.6 533.695,196.469C535.052,200.67 539.566,202.979 543.767,201.622C547.968,200.264 550.277,195.751 548.919,191.549C539.159,161.344 511.157,150.979 481.313,151.719C430.812,152.97 388.665,182.759 370.6,229.125C368.997,233.239 371.035,237.881 375.15,239.484C379.264,241.087 383.905,239.048 385.508,234.934Z" style="fill:rgb(255,236,150);"/>
        <path d="M358.813,473.011C354.123,440.221 362.022,405.659 367.271,373.291C380.925,289.11 404.434,193.316 481.087,144.213C484.805,141.831 485.89,136.879 483.508,133.161C481.127,129.444 476.175,128.359 472.457,130.74C391.919,182.331 365.823,282.282 351.478,370.73C345.976,404.655 338.059,440.908 342.974,475.277C343.599,479.647 347.655,482.688 352.026,482.063C356.397,481.438 359.438,477.382 358.813,473.011Z" style="fill:rgb(255,236,150);"/>
        <path d="M358.284,481.793C351.305,455.871 359.408,425.857 359.822,399.197C360.669,344.774 356.431,289.272 337.968,237.625C322.793,195.178 292.473,157.901 243.701,159.188C239.287,159.304 235.798,162.982 235.915,167.396C236.031,171.809 239.709,175.298 244.123,175.182C285.467,174.092 310.038,207.029 322.901,243.011C340.719,292.85 344.642,346.43 343.824,398.948C343.387,427.028 335.484,458.65 342.834,485.952C343.982,490.216 348.375,492.745 352.638,491.598C356.902,490.45 359.431,486.057 358.284,481.793Z" style="fill:rgb(255,222,77);"/>
        <path d="M356.598,457.631C341.263,362.04 348.603,253.439 407.069,172.683C435.753,133.065 468.234,103.525 518.36,101.185C522.771,100.979 526.184,97.232 525.979,92.821C525.773,88.41 522.025,84.997 517.614,85.203C462.241,87.788 425.795,119.535 394.11,163.3C333.172,247.469 324.817,360.535 340.8,460.166C341.499,464.525 345.606,467.497 349.966,466.798C354.326,466.098 357.297,461.991 356.598,457.631Z" style="fill:rgb(255,222,77);"/>
        <path d="M352.201,452.164C346.148,407.243 353.228,361.962 355.092,316.914C356.692,278.261 355.012,240.032 348.806,201.862C341.773,158.613 308.782,113.918 259.342,125.784C255.049,126.814 252.399,131.136 253.43,135.43C254.46,139.723 258.782,142.372 263.076,141.342C302.728,131.825 327.373,169.743 333.013,204.43C339.045,241.528 340.661,278.685 339.106,316.252C337.203,362.231 330.166,408.451 336.344,454.301C336.933,458.677 340.965,461.751 345.34,461.161C349.716,460.572 352.79,456.54 352.201,452.164Z" style="fill:rgb(255,222,77);"/>
        <path d="M373.434,202.715C359.875,183.749 343.118,168.811 326.614,152.478C301.234,127.362 274.321,99.697 239.379,88.589C204.225,77.414 161.098,88.371 141.978,120.816C139.737,124.62 141.005,129.528 144.809,131.77C148.613,134.012 153.521,132.743 155.763,128.939C171.17,102.794 206.204,94.832 234.532,103.837C267.064,114.179 291.73,140.467 315.359,163.851C331.212,179.539 347.395,193.803 360.418,212.02C362.986,215.612 367.987,216.443 371.578,213.875C375.17,211.307 376.002,206.307 373.434,202.715Z" style="fill:rgb(255,222,77);"/>
        <path d="M344.364,194.605C336.734,188.853 331.035,181.429 325.444,173.869C319.114,165.309 312.937,156.563 305.08,149.17C276.625,122.394 239.66,114.843 203.85,130.682C199.812,132.468 197.983,137.197 199.769,141.235C201.556,145.273 206.284,147.101 210.322,145.315C239.977,132.198 270.551,138.648 294.115,160.822C301.27,167.555 306.815,175.586 312.58,183.382C319.085,192.178 325.855,200.689 334.732,207.381C338.258,210.039 343.278,209.335 345.936,205.809C348.594,202.283 347.89,197.263 344.364,194.605Z" style="fill:rgb(255,222,77);"/>
        <path d="M357.607,217.158C361.055,170.083 376.226,120.816 415.168,91.658C418.702,89.012 419.423,83.994 416.777,80.46C414.131,76.925 409.113,76.204 405.578,78.851C362.903,110.803 345.428,164.402 341.65,215.99C341.328,220.393 344.641,224.23 349.044,224.553C353.448,224.875 357.285,221.562 357.607,217.158Z" style="fill:rgb(255,222,77);"/>
        <path d="M331.462,474.074C318.088,359.506 398.91,229.155 486.679,161.48C490.175,158.784 490.825,153.757 488.129,150.26C485.433,146.763 480.405,146.114 476.909,148.81C385.183,219.535 301.593,356.196 315.57,475.929C316.082,480.314 320.058,483.459 324.443,482.947C328.829,482.435 331.974,478.459 331.462,474.074Z" style="fill:rgb(255,222,77);"/>
        <path d="M359.47,460.088C349.52,427.741 357.853,389.693 356.055,356.187C352.482,289.597 333.99,222.21 293.403,168.582C267.934,134.929 246.371,108.273 201.583,109.089C197.169,109.169 193.65,112.818 193.73,117.233C193.811,121.648 197.46,125.166 201.875,125.086C240.775,124.377 258.525,149.009 280.645,178.238C319.311,229.326 336.674,293.607 340.078,357.045C341.942,391.797 333.857,431.242 344.177,464.792C345.475,469.012 349.955,471.384 354.176,470.086C358.396,468.788 360.768,464.308 359.47,460.088Z" style="fill:rgb(255,209,11);"/>
        <path d="M334.938,453.54C331.627,419.471 340.264,385.766 350.627,353.389C369.834,293.379 408.706,219.895 463.546,176.001C499.081,147.56 541.403,131.68 589.472,141.079C593.805,141.926 598.011,139.096 598.858,134.762C599.706,130.429 596.876,126.223 592.542,125.376C539.526,115.01 492.74,132.14 453.548,163.51C396.298,209.332 355.439,285.865 335.388,348.512C324.366,382.95 315.491,418.85 319.013,455.087C319.44,459.482 323.354,462.703 327.749,462.276C332.144,461.849 335.365,457.935 334.938,453.54Z" style="fill:rgb(255,209,11);"/>
        <path d="M351.925,461.39C357.794,408.878 367.892,356.887 370.194,304.034C371.858,265.835 370.54,226.688 376.744,190.344C382.695,155.482 395.68,123.234 425.952,97.335C429.307,94.464 429.701,89.41 426.83,86.055C423.96,82.7 418.906,82.307 415.551,85.177C382.149,113.753 367.538,149.185 360.972,187.651C354.659,224.636 355.902,264.466 354.209,303.338C351.923,355.829 341.853,407.46 336.024,459.613C335.534,464.001 338.698,467.961 343.086,468.452C347.474,468.942 351.435,465.778 351.925,461.39Z" style="fill:rgb(255,209,11);"/>
        <path d="M338.409,452.636C340.85,421.928 348.084,391.81 350.061,361.005C355.368,278.334 350.189,184.422 276.129,133.351C272.494,130.844 267.508,131.76 265.001,135.395C262.495,139.03 263.411,144.016 267.046,146.523C336.273,194.262 339.055,282.704 334.094,359.98C332.122,390.704 324.893,420.741 322.46,451.369C322.11,455.77 325.399,459.628 329.801,459.978C334.202,460.327 338.06,457.038 338.409,452.636Z" style="fill:rgb(255,233,137);"/>
        <path d="M357.081,449.31C340.214,383.433 356.142,314.595 379.76,252.519C399.221,201.367 428.885,155.246 473.856,123.272C477.455,120.713 478.299,115.715 475.741,112.116C473.182,108.518 468.184,107.673 464.585,110.232C417.001,144.063 385.397,192.706 364.805,246.829C340.036,311.932 323.892,384.19 341.581,453.279C342.676,457.556 347.038,460.14 351.315,459.044C355.593,457.949 358.176,453.587 357.081,449.31Z" style="fill:rgb(255,233,137);"/>
        <path d="M346.391,440.819C337.765,423.745 341.904,404.571 342.522,385.758C343.315,361.636 346.895,337.769 348.788,313.735C354.344,243.214 349.711,172.694 316.113,109.341C314.045,105.441 309.198,103.953 305.297,106.022C301.397,108.091 299.909,112.937 301.978,116.838C334.126,177.457 338.154,245 332.838,312.479C330.925,336.756 327.331,360.866 326.531,385.232C325.824,406.722 322.257,428.531 332.11,448.034C334.101,451.975 338.917,453.558 342.858,451.567C346.799,449.576 348.382,444.76 346.391,440.819Z" style="fill:rgb(255,207,0);"/>
        <path d="M352.428,175.48C346.79,149.318 356.896,127.216 371.131,105.425C373.546,101.729 372.505,96.767 368.809,94.352C365.113,91.937 360.151,92.978 357.736,96.674C341.087,122.16 330.193,148.251 336.787,178.85C337.717,183.167 341.976,185.916 346.292,184.986C350.608,184.056 353.358,179.796 352.428,175.48Z" style="fill:rgb(255,207,0);"/>
        <path d="M343.869,130.293C334.831,115.604 328.068,102.377 312.123,94.858C308.129,92.974 303.358,94.688 301.475,98.681C299.592,102.675 301.305,107.446 305.299,109.329C318.207,115.416 322.925,126.786 330.242,138.678C332.556,142.438 337.488,143.613 341.248,141.299C345.009,138.985 346.183,134.054 343.869,130.293Z" style="fill:rgb(255,232,134);"/>
        <path d="M392.22,115.735C403.615,107.09 414.34,100.635 427.413,94.925C431.459,93.157 433.309,88.437 431.542,84.391C429.775,80.345 425.055,78.495 421.009,80.262C406.724,86.502 394.999,93.542 382.549,102.989C379.032,105.658 378.343,110.68 381.012,114.198C383.681,117.715 388.703,118.404 392.22,115.735Z" style="fill:rgb(255,232,134);"/>
        <path d="M434.872,143.311C441.598,125.212 451.037,115.635 468.072,106.091C471.924,103.932 473.299,99.053 471.141,95.201C468.983,91.349 464.103,89.974 460.251,92.132C439.447,103.789 428.088,115.634 419.874,137.737C418.336,141.876 420.447,146.485 424.586,148.023C428.725,149.561 433.334,147.449 434.872,143.311Z" style="fill:rgb(255,232,134);"/>
        <path d="M429.96,198.506C445.992,179.999 463.609,168.99 487.285,161.782C491.509,160.497 493.895,156.023 492.609,151.799C491.323,147.575 486.85,145.19 482.626,146.476C455.866,154.622 435.986,167.113 417.867,188.03C414.976,191.367 415.338,196.424 418.675,199.315C422.013,202.206 427.069,201.843 429.96,198.506Z" style="fill:rgb(255,232,134);"/>
        <path d="M470.706,162.176C486.484,146.832 502.657,141.694 523.628,134.86C527.826,133.492 530.124,128.973 528.755,124.775C527.387,120.577 522.868,118.28 518.67,119.648C495.155,127.311 477.243,133.5 459.551,150.705C456.386,153.783 456.315,158.852 459.394,162.018C462.472,165.183 467.541,165.254 470.706,162.176Z" style="fill:rgb(255,187,34);"/>
        <path d="M434.138,163.125C391.32,192.662 362.189,228.078 338.693,274.612C336.703,278.553 338.287,283.369 342.229,285.359C346.17,287.349 350.986,285.765 352.976,281.823C375.206,237.797 402.712,204.241 443.224,176.295C446.858,173.788 447.773,168.802 445.266,165.168C442.759,161.533 437.773,160.618 434.138,163.125Z" style="fill:rgb(255,187,34);"/>
        <path d="M342.479,312.296C333.305,350.798 328.186,388.763 331.918,428.366C332.332,432.762 336.238,435.995 340.634,435.58C345.029,435.166 348.262,431.261 347.848,426.865C344.282,389.036 349.28,352.782 358.043,316.005C359.067,311.71 356.41,307.392 352.115,306.368C347.82,305.345 343.502,308.001 342.479,312.296Z" style="fill:rgb(255,187,34);"/>
        <path d="M338.655,173.295C300.043,134.21 253.666,114.358 197.797,117.665C193.389,117.926 190.023,121.716 190.284,126.124C190.545,130.532 194.335,133.898 198.742,133.637C249.741,130.618 292.027,148.862 327.273,184.539C330.376,187.68 335.445,187.711 338.586,184.608C341.727,181.505 341.758,176.436 338.655,173.295Z" style="fill:rgb(255,187,34);"/>
        <path d="M377.463,151.749C390.473,120.786 410.638,98.447 439.619,81.365C443.422,79.122 444.69,74.214 442.448,70.41C440.206,66.607 435.298,65.339 431.494,67.581C399.405,86.496 377.118,111.267 362.712,145.551C361.002,149.621 362.918,154.315 366.989,156.025C371.059,157.736 375.753,155.819 377.463,151.749Z" style="fill:rgb(255,187,34);"/>
        <path d="M334.762,140.82C321.315,113.952 307.28,89.658 274.533,85.328C270.156,84.75 266.132,87.833 265.553,92.211C264.975,96.588 268.058,100.612 272.436,101.19C299.245,104.735 309.445,125.985 320.453,147.981C322.429,151.929 327.239,153.531 331.188,151.555C335.136,149.579 336.738,144.769 334.762,140.82Z" style="fill:rgb(255,199,73);"/>
        <path d="M360.897,146.185C354.422,141.99 352.652,134.639 352.567,126.946C352.462,117.399 355.115,107.172 357.834,99.194C359.258,95.015 357.021,90.466 352.842,89.042C348.662,87.617 344.113,89.854 342.689,94.034C338.757,105.573 335.234,121.065 337.09,134.304C338.541,144.659 343.106,153.723 352.198,159.613C355.904,162.014 360.861,160.954 363.262,157.249C365.662,153.543 364.603,148.586 360.897,146.185Z" style="fill:rgb(255,199,73);"/>
        <path d="M421.004,157.701C437.916,129.303 469.353,116.091 497.974,101.63C501.915,99.638 503.498,94.822 501.507,90.882C499.516,86.941 494.7,85.358 490.759,87.349C459.47,103.158 425.745,118.47 407.257,149.514C404.998,153.308 406.243,158.222 410.037,160.481C413.83,162.74 418.745,161.494 421.004,157.701Z" style="fill:rgb(255,199,73);"/>
        <path d="M334.706,214.179C310.139,174.511 257.636,162.234 214.31,158.754C209.909,158.4 206.049,161.686 205.695,166.088C205.342,170.489 208.628,174.349 213.029,174.702C251.672,177.807 299.192,187.223 321.104,222.603C323.429,226.357 328.363,227.517 332.117,225.193C335.871,222.868 337.031,217.933 334.706,214.179Z" style="fill:rgb(255,199,73);"/>
        <path d="M365.174,224.554C365.949,204.602 369.625,186.912 375.798,167.936C377.164,163.737 374.864,159.219 370.665,157.853C366.467,156.487 361.949,158.787 360.583,162.986C353.939,183.411 350.02,202.458 349.186,223.933C349.015,228.345 352.458,232.066 356.87,232.237C361.282,232.409 365.003,228.966 365.174,224.554Z" style="fill:rgb(255,199,73);"/>
        <path d="M359.452,283.341C349.105,310.445 344.296,338.744 342.573,367.687C342.311,372.094 345.676,375.885 350.083,376.148C354.491,376.41 358.282,373.045 358.545,368.637C360.17,341.331 364.638,314.619 374.4,289.047C375.975,284.923 373.904,280.295 369.779,278.72C365.654,277.146 361.027,279.216 359.452,283.341Z" style="fill:rgb(255,199,73);"/>
    </g>
    <path d="M312.577,343.134C311.994,342.455 311.505,341.715 311.11,340.926C309.329,337.364 310.213,334.749 311.251,332.914C312.195,331.247 313.727,329.794 316.025,329.051C317.268,328.649 320.746,328.694 320.746,328.694C320.746,328.694 320.397,328.677 320.28,328.677C326.756,328.677 330.893,330.185 336.362,332.033L371.301,332.033C375.716,332.033 379.301,335.618 379.301,340.033C379.301,342.975 377.709,345.548 375.34,346.936C375.836,348.618 376.119,350.634 376.006,352.894C375.773,357.542 374.33,363.766 373.312,366.528C372.52,368.68 371.471,369.974 370.916,370.529C369.685,371.76 366.493,373.513 361.618,373.854C352.411,374.499 333.071,372.224 329.398,371.189C329.168,371.178 324.131,370.929 321.753,370.527C318.606,369.994 316.148,368.698 314.623,367.173C314.005,366.555 313.079,365.467 312.523,363.615C312.17,362.444 311.776,357.959 311.776,353.46C311.776,348.961 312.17,344.476 312.523,343.305L312.577,343.134Z" style="fill:rgb(40,154,0);"/>
</svg>
