<?xml version="1.0" encoding="UTF-8" standalone="no"?>
<!DOCTYPE svg PUBLIC "-//W3C//DTD SVG 1.1//EN" "http://www.w3.org/Graphics/SVG/1.1/DTD/svg11.dtd">
<svg width="100%" height="100%" viewBox="0 0 800 600" version="1.1" xmlns="http://www.w3.org/2000/svg" xmlns:xlink="http://www.w3.org/1999/xlink" xml:space="preserve" xmlns:serif="http://www.serif.com/" style="fill-rule:evenodd;clip-rule:evenodd;stroke-linecap:round;stroke-linejoin:round;stroke-miterlimit:1.5;">
    <g transform="matrix(2.04237,1.63365,-1.63365,2.04237,322.34,-853.157)">
        <path d="M349.288,204.404L318.353,250.377C318.353,250.377 319.212,296.779 318.353,297.639L327.805,313.965L321.361,331.581L320.501,366.383L336.828,392.591L344.991,394.74L345.421,402.903L353.584,415.792L388.386,370.25L386.667,248.658L349.288,204.404L318.353,250.377" style="fill:url(#_Linear1);stroke:rgb(65,65,65);stroke-width:0.38px;"/>
        <g transform="matrix(0.958167,0,0,0.982487,14.8807,4.04354)">
            <path d="M349.288,204.404L352.003,261.754L388.025,249.38C388.025,249.38 347.947,205.075 349.288,204.404Z" style="fill:url(#_Linear2);stroke:rgb(65,65,65);stroke-width:0.39px;"/>
        </g>
        <path d="M352.263,261.009L318.333,250.59L349.306,204.869C349.306,204.869 352.403,261.396 352.263,261.009Z" style="fill:url(#_Linear3);stroke:rgb(65,65,65);stroke-width:0.38px;"/>
        <g transform="matrix(1.53687,0,0,0.998471,-190.051,0.370229)">
            <path d="M352.84,261.448L353.72,415.929" style="fill:none;stroke:rgb(65,65,65);stroke-width:0.3px;"/>
        </g>
    </g>
    <g transform="matrix(2.14987,-1.48934,1.48934,2.14987,-1009.5,203.562)">
        <path d="M349.288,204.404L318.353,250.377C318.353,250.377 319.212,296.779 318.353,297.639L327.805,313.965L321.361,331.581L320.501,366.383L336.828,392.591L344.991,394.74L345.421,402.903L353.584,415.792L388.386,370.25L386.667,248.658L349.288,204.404L318.353,250.377" style="fill:url(#_Linear4);stroke:rgb(65,65,65);stroke-width:0.38px;"/>
        <g transform="matrix(0.958167,0,0,0.982487,14.8807,4.04354)">
            <path d="M349.288,204.404L352.003,261.754L388.025,249.38C388.025,249.38 347.947,205.075 349.288,204.404Z" style="fill:url(#_Linear5);stroke:rgb(65,65,65);stroke-width:0.39px;"/>
        </g>
        <path d="M352.263,261.009L318.333,250.59L349.306,204.869C349.306,204.869 352.403,261.396 352.263,261.009Z" style="fill:url(#_Linear6);stroke:rgb(65,65,65);stroke-width:0.38px;"/>
        <g transform="matrix(1.53687,0,0,0.998471,-190.051,0.370229)">
            <path d="M352.84,261.448L353.72,415.929" style="fill:none;stroke:rgb(65,65,65);stroke-width:0.3px;"/>
        </g>
    </g>
    <g transform="matrix(2.61536,0,0,2.61536,-556.842,-513.773)">
        <path d="M349.288,204.404L318.353,250.377C318.353,250.377 319.212,296.779 318.353,297.639L327.805,313.965L321.361,331.581L320.501,366.383L336.828,392.591L344.991,394.74L345.421,402.903L353.584,415.792L388.386,370.25L386.667,248.658L349.288,204.404L318.353,250.377" style="fill:url(#_Linear7);stroke:rgb(65,65,65);stroke-width:0.38px;"/>
        <g transform="matrix(0.958167,0,0,0.982487,14.8807,4.04354)">
            <path d="M349.288,204.404L352.003,261.754L388.025,249.38C388.025,249.38 347.947,205.075 349.288,204.404Z" style="fill:none;stroke:rgb(65,65,65);stroke-width:0.39px;"/>
        </g>
        <path d="M352.263,261.009L318.333,250.59L349.306,204.869C349.306,204.869 352.403,261.396 352.263,261.009Z" style="fill:none;stroke:rgb(65,65,65);stroke-width:0.38px;"/>
        <g transform="matrix(1.53687,0,0,0.998471,-190.051,0.370229)">
            <path d="M352.84,261.448L353.72,415.929" style="fill:none;stroke:rgb(65,65,65);stroke-width:0.3px;"/>
        </g>
    </g>
    <defs>
        <linearGradient id="_Linear1" x1="0" y1="0" x2="1" y2="0" gradientUnits="userSpaceOnUse" gradientTransform="matrix(-33.614,-151.638,151.638,-33.614,359.974,400.466)"><stop offset="0" style="stop-color:white;stop-opacity:1"/><stop offset="0.25" style="stop-color:rgb(157,235,255);stop-opacity:1"/><stop offset="0.5" style="stop-color:rgb(72,208,243);stop-opacity:1"/><stop offset="1" style="stop-color:rgb(0,53,67);stop-opacity:1"/></linearGradient>
        <linearGradient id="_Linear2" x1="0" y1="0" x2="1" y2="0" gradientUnits="userSpaceOnUse" gradientTransform="matrix(-35.0816,-154.341,158.258,-34.2132,360.16,403.489)"><stop offset="0" style="stop-color:white;stop-opacity:1"/><stop offset="0.25" style="stop-color:rgb(157,235,255);stop-opacity:1"/><stop offset="0.5" style="stop-color:rgb(72,208,243);stop-opacity:1"/><stop offset="1" style="stop-color:rgb(0,53,67);stop-opacity:1"/></linearGradient>
        <linearGradient id="_Linear3" x1="0" y1="0" x2="1" y2="0" gradientUnits="userSpaceOnUse" gradientTransform="matrix(-33.614,-151.638,151.638,-33.614,359.974,400.466)"><stop offset="0" style="stop-color:white;stop-opacity:1"/><stop offset="0.25" style="stop-color:rgb(157,235,255);stop-opacity:1"/><stop offset="0.5" style="stop-color:rgb(72,208,243);stop-opacity:1"/><stop offset="1" style="stop-color:rgb(0,53,67);stop-opacity:1"/></linearGradient>
        <linearGradient id="_Linear4" x1="0" y1="0" x2="1" y2="0" gradientUnits="userSpaceOnUse" gradientTransform="matrix(58.0548,-68.8333,68.8333,58.0548,327.417,355.154)"><stop offset="0" style="stop-color:white;stop-opacity:1"/><stop offset="0.5" style="stop-color:rgb(151,151,151);stop-opacity:1"/><stop offset="1" style="stop-color:rgb(84,84,84);stop-opacity:1"/></linearGradient>
        <linearGradient id="_Linear5" x1="0" y1="0" x2="1" y2="0" gradientUnits="userSpaceOnUse" gradientTransform="matrix(60.5894,-70.0603,71.8385,59.0896,326.182,357.369)"><stop offset="0" style="stop-color:white;stop-opacity:1"/><stop offset="0.5" style="stop-color:rgb(151,151,151);stop-opacity:1"/><stop offset="1" style="stop-color:rgb(84,84,84);stop-opacity:1"/></linearGradient>
        <linearGradient id="_Linear6" x1="0" y1="0" x2="1" y2="0" gradientUnits="userSpaceOnUse" gradientTransform="matrix(58.0548,-68.8333,68.8333,58.0548,327.417,355.154)"><stop offset="0" style="stop-color:white;stop-opacity:1"/><stop offset="0.5" style="stop-color:rgb(151,151,151);stop-opacity:1"/><stop offset="1" style="stop-color:rgb(84,84,84);stop-opacity:1"/></linearGradient>
        <linearGradient id="_Linear7" x1="0" y1="0" x2="1" y2="0" gradientUnits="userSpaceOnUse" gradientTransform="matrix(50.3336,-128.616,128.616,50.3336,323.896,368.166)"><stop offset="0" style="stop-color:rgb(240,240,240);stop-opacity:1"/><stop offset="1" style="stop-color:rgb(88,0,82);stop-opacity:1"/></linearGradient>
    </defs>
</svg>
