<?xml version="1.0" encoding="UTF-8" standalone="no"?>
<!DOCTYPE svg PUBLIC "-//W3C//DTD SVG 1.1//EN" "http://www.w3.org/Graphics/SVG/1.1/DTD/svg11.dtd">
<svg width="100%" height="100%" viewBox="0 0 800 600" version="1.1" xmlns="http://www.w3.org/2000/svg" xmlns:xlink="http://www.w3.org/1999/xlink" xml:space="preserve" xmlns:serif="http://www.serif.com/" style="fill-rule:evenodd;clip-rule:evenodd;stroke-linejoin:round;stroke-miterlimit:2;">
    <path d="M290.099,357.491C291.656,355.813 293.384,354.269 295.365,352.903C299.001,350.398 303.987,351.316 306.492,354.952C308.678,358.123 308.258,362.323 305.701,365.006L305.649,365.256C304.89,368.737 303.625,372.102 302.761,375.565C299.93,386.91 295.56,397.264 290.837,407.9C289.499,410.912 287.278,415.995 284.375,419.339C282.269,421.766 279.783,423.448 277.163,424.22C275.43,424.731 273.762,424.651 272.155,424.073C271.033,423.669 269.643,422.939 268.507,421.449C264.621,420.163 262.296,416.103 263.24,412.046L263.295,411.896L263.278,411.892C263.278,411.892 263.809,409.94 264.209,409.015C264.722,407.832 265.219,406.646 265.722,405.458C266.491,403.642 267.287,401.86 268.105,400.088C268.401,399.038 268.718,397.989 269.032,396.936C271.993,386.987 276.27,378.094 281.744,369.216C283.925,365.68 286.06,362.245 288.624,359.167C289.329,358.189 290.081,357.248 290.887,356.36C290.611,356.664 290.033,357.544 290.033,357.544L290.099,357.491Z"/>
    <path d="M456.43,345.211C456.959,346.278 457.256,347.48 457.256,348.75C457.256,365.965 455.572,384.863 451.043,402.481C449.896,406.944 448.452,411.049 447.034,415.395C446.661,416.539 445.831,418.58 444.814,420.057C443.824,421.495 442.617,422.568 441.456,423.245C439.222,424.545 436.848,424.832 434.425,424.118C432.576,423.573 430.736,422.378 429.42,420.21C428.47,418.645 427.831,415.346 427.655,414.204C426.886,409.191 427.45,404.23 427.922,399.207C429.758,379.652 434.763,360.841 440.847,342.1C442.211,337.901 446.727,335.598 450.927,336.962C454.52,338.128 456.724,341.602 456.43,345.211Z"/>
    <g transform="matrix(1,0,0,1,20.9791,-28.5315)">
        <path d="M301.751,174.533C281.415,168.203 253.189,158.95 234.516,174.766C225.697,182.235 223.463,199.779 232.516,208.174C233.892,209.449 242.619,218.21 244.745,217.026C246.95,215.799 239.777,215.742 237.259,215.908C232.519,216.221 227.752,215.68 223.077,216.793C208.049,220.372 195.818,228.984 189.646,243.538C185.42,253.501 188.102,265.854 197.504,271.681C203.214,275.22 209.343,277.511 216.01,278.53C217.319,278.73 219.962,278.949 219.962,278.949C219.962,278.949 216.798,278.824 215.219,278.716C208.35,278.25 196.658,283.043 191.645,287.802C181.011,297.898 171.146,319.482 179.835,333.371C190.486,350.397 212.743,341.804 227.402,341.804C227.872,341.804 223.858,342.473 219.962,344.693C215.106,347.46 212.99,351.354 212.057,356.854C209.398,372.532 214.902,391.351 229.773,398.882C240.166,404.145 253.913,400.634 263.995,396.226C265.993,395.352 276.384,387.925 278.177,388.724C278.633,388.927 277.353,389.292 276.968,389.609C273.373,392.577 272.951,400.151 273.853,404.193C276.174,414.59 286.705,424.458 296.637,427.443C313.069,432.384 328.754,425.726 340.298,413.931C345.27,408.851 352.527,396.459 352.527,396.459C352.527,396.459 353.241,403.897 355.27,406.849C360.462,414.405 365.855,421.658 374.52,425.673C391.608,433.59 416.395,418.881 422.924,402.656C423.919,400.184 420.67,389.28 416.647,391.799C416.059,392.168 419.158,395.574 419.39,395.806C423.071,399.495 428.248,403.48 433.154,405.311C447.435,410.643 461.941,407.564 474.071,398.882C483.423,392.188 494.564,381.858 493.321,369.248C492.788,363.831 488.376,355.913 483.092,353.732C482.359,353.43 480.721,353.546 480.721,353.546C480.721,353.546 487.435,356.053 490.95,356.621C498.126,357.781 505.709,356.047 512.2,352.847C529.429,344.352 545.236,324.236 548.793,305.275C549.677,300.562 550.26,294.645 548.421,290.039C547.188,286.951 530.155,269.994 527.544,271.448C526.78,271.873 531.573,271.231 532.658,270.796C536.822,269.127 541.082,266.389 544.05,263.014C553.223,252.588 559.406,237.462 557.442,223.223C555.305,207.729 543.081,201.394 529.497,197.55C526.701,196.759 517.746,197.983 515.733,195.966C515.502,195.735 518.296,192.387 518.523,192.006C521.107,187.664 522.114,183.002 522.847,178.074C524.394,167.681 519.637,156.323 512.99,148.394C504.59,138.373 490.357,133.964 477.977,131.62C460.162,128.247 444.168,134.462 427.248,134.462C426.563,134.462 424.739,128.401 423.715,127.613C419.342,124.25 414.298,121.418 409.161,119.226C391.806,111.822 374.436,113.027 356.851,118.993C346.524,122.497 336.279,131.179 330.068,140.007C327.13,144.184 325.372,154.591 325.372,154.591C325.372,154.591 325.115,154.14 324.954,153.939C320.846,148.793 299.553,167.193 302.17,170.107" style="fill:url(#_Linear1);"/>
    </g>
    <path d="M361.78,351.439L361.784,351.375C362.1,346.972 365.932,343.653 370.336,343.969C374.74,344.285 378.059,348.118 377.743,352.522C377.494,355.982 377.885,359.322 377.885,362.758C377.885,365.825 377.64,368.926 377.31,372.031L377.601,373.401C380.371,386.953 380.475,401.027 380.475,414.806C380.475,417.742 380.831,421.745 380.25,425.253C379.582,429.287 377.85,432.796 374.855,435.267C370.722,438.678 366.994,438.227 364.128,436.911C362.445,436.138 360.894,434.673 359.746,432.876C357.445,432.96 355.125,432.057 353.475,430.205C351.048,427.48 349.718,424.064 349.263,420.333C348.805,416.587 349.314,412.469 349.706,409.161C350.864,399.399 352.739,389.703 354.557,380.043C355.484,375.12 356.274,370.142 356.925,365.182C357.152,363.458 357.373,361.713 357.642,359.989C357.62,359.075 357.609,357.589 357.73,357.021C358.154,355.03 359.143,353.612 360.228,352.614C360.698,352.181 361.212,351.779 361.78,351.439Z"/>
    <path d="M346.194,330.174C342.478,331.564 338.144,332.536 333.105,332.956C317.829,334.232 298.298,334.108 281.68,328.865C269.509,325.025 258.88,318.468 251.902,308.248C245.768,299.266 245.43,287.08 249.466,273.857C257.398,247.873 282.097,217.267 293.637,206.247C299.138,200.994 307.241,198.983 314.107,196.607C316.837,195.662 319.753,196.279 321.843,198.019C325.246,198.822 328.758,200.27 332.173,202.209C340.101,206.711 347.602,213.664 351.38,217.895C362.898,230.795 380.053,250.039 385.799,269.329C390.249,284.267 388.573,299.288 374.952,312.391C366.823,320.211 358.108,327.335 346.479,330.11L346.194,330.174Z"/>
    <path d="M247.215,219.684C246.456,219.704 245.681,219.613 244.911,219.403C240.652,218.238 238.141,213.834 239.306,209.575C243.875,192.872 258.501,183.954 274.809,182.373C278.643,182.001 282.389,182.931 286.162,183.156C291.875,183.497 301.336,187.669 305.476,191.818C307.1,193.445 308.773,194.784 310.082,196.751C311.209,198.445 312.026,200.395 312.129,202.432C312.34,203.112 312.493,203.642 312.491,203.726C312.418,206.694 311.032,208.551 309.477,209.789C308.027,210.945 306.002,211.914 303.123,211.414C302.771,211.353 301.095,211.306 299.043,209.389C298.797,209.322 297.543,208.989 296.85,208.858C295.662,208.633 294.468,208.402 293.308,208.074C287.362,206.391 280.397,206.698 274.514,208.947C270.245,210.58 266.588,212.474 263.107,215.415C261.985,216.363 258.526,220.136 257.137,220.918C255.484,221.848 253.99,222.056 252.897,222.056C250.676,222.056 248.665,221.148 247.215,219.684ZM312.005,202.032C311.708,200.76 310.994,198.86 310.994,198.86C310.994,198.86 311.57,200.625 312.005,202.032Z"/>
    <path d="M331.41,212.357C329.532,213.358 327.262,213.611 325.09,212.876C320.907,211.462 318.66,206.917 320.075,202.735C321.809,197.606 324.77,193.644 328.395,189.754C342.12,175.031 363.895,171.125 380.678,183.986C385.182,187.437 388.616,191.834 391.678,196.498C391.94,196.898 392.916,199.099 393.508,200.461L393.644,200.622C394.388,201.616 394.773,202.57 394.988,203.338C395.824,206.319 395.034,208.727 393.445,210.651C392.481,211.818 390.742,213.591 387.148,213.591C385.858,213.591 383.083,213.386 380.839,210.557C380.232,210.087 379.527,209.59 378.87,209.178C377.62,208.393 376.325,207.389 374.996,206.404C374.22,205.829 373.523,205.08 372.659,204.903C363.548,203.038 353.707,201.675 345.255,206.205C343.276,207.266 341.601,208.421 339.772,209.66C339.577,209.793 339.023,210.116 338.596,210.362C337.165,211.713 335.235,212.541 333.114,212.541C332.529,212.541 331.959,212.478 331.41,212.357Z"/>
    <path d="M513.423,301.638C513.725,302.674 515.238,307.913 515.48,309.34C516.352,314.483 518.769,320.168 520.149,325.42C524.664,342.614 531.1,359.38 534.754,376.825C535.613,380.93 537.147,389.701 535.153,394.969C533.458,399.447 530.207,402.586 524.67,403.259C522.711,403.497 519.643,403.163 517.118,402.156C514.613,401.157 512.661,399.515 511.559,397.859C510.981,396.99 509.95,395.171 509.95,395.171C509.618,394.58 509.363,393.95 509.19,393.294C509.19,393.294 508.026,388.726 507.829,386.387C507.507,382.553 506.307,378.769 505.666,374.994C503.837,364.212 503.687,352.955 501.242,342.272C498.199,328.976 495.098,315.257 495.079,301.527C495.073,297.111 498.652,293.522 503.067,293.516C505.406,293.512 507.513,294.515 508.979,296.116C509.873,296.522 510.849,297.189 511.778,298.313C511.842,298.391 512.616,299.116 513.241,300.994C513.312,301.208 513.374,301.423 513.423,301.638Z"/>
    <path d="M301.054,207.268C301.703,207.575 302.347,207.99 302.984,208.521C303.83,209.226 305.072,210.625 305.881,212.845C306.703,215.102 307.457,219.694 307.609,220.813C308.631,228.317 310.061,234.885 306.231,242.101C305.495,243.488 304.056,246.788 302.395,248.529C299.785,251.263 296.618,252.2 293.4,251.58C285.92,250.138 281.631,245.033 279.847,238.299C277.916,231.009 279.518,221.492 281.917,216.012C282.781,214.038 283.125,212.109 284.387,210.217C285.137,209.092 286.253,207.975 287.683,207.06C288.874,206.297 290.461,205.672 291.37,205.222C294.749,203.553 298.743,204.494 301.054,207.268ZM304.584,218.305C304.632,218.195 304.678,218.081 304.722,217.962L304.584,218.305Z" style="fill:white;"/>
    <g transform="matrix(1,0,0,1,45.921,-0.274977)">
        <path d="M301.054,207.268C301.703,207.575 302.347,207.99 302.984,208.521C303.83,209.226 305.072,210.625 305.881,212.845C306.703,215.102 307.457,219.694 307.609,220.813C308.631,228.317 310.061,234.885 306.231,242.101C305.495,243.488 304.056,246.788 302.395,248.529C299.785,251.263 296.618,252.2 293.4,251.58C285.92,250.138 281.631,245.033 279.847,238.299C277.916,231.009 279.518,221.492 281.917,216.012C282.781,214.038 283.125,212.109 284.387,210.217C285.137,209.092 286.253,207.975 287.683,207.06C288.874,206.297 290.461,205.672 291.37,205.222C294.749,203.553 298.743,204.494 301.054,207.268ZM304.584,218.305C304.632,218.195 304.678,218.081 304.722,217.962L304.584,218.305Z" style="fill:white;"/>
    </g>
    <path d="M286.194,230.34L286.194,241.889C286.194,246.304 289.779,249.889 294.194,249.889C298.609,249.889 302.194,246.304 302.194,241.889L302.194,230.34C302.194,225.925 298.609,222.34 294.194,222.34C289.779,222.34 286.194,225.925 286.194,230.34Z"/>
    <path d="M332.39,231.165L332.39,242.164C332.39,246.579 335.975,250.164 340.39,250.164C344.805,250.164 348.39,246.579 348.39,242.164L348.39,231.165C348.39,226.75 344.805,223.165 340.39,223.165C335.975,223.165 332.39,226.75 332.39,231.165Z"/>
    <path d="M297.271,306.326C297.465,308.462 298.697,310.347 299.776,312.168C300.609,313.574 301.254,315.016 302.422,316.211C307.357,321.263 317.426,322.726 323.453,319.111C326.454,317.31 328.761,314.587 330.205,311.412C330.945,309.786 331.321,307.847 332.304,306.349C332.368,306.251 332.341,306.119 332.243,306.054C332.144,305.99 332.012,306.017 331.947,306.115C330.952,307.631 330.566,309.59 329.817,311.235C328.408,314.332 326.161,316.989 323.234,318.745C317.357,322.271 307.539,320.839 302.727,315.913C301.583,314.743 300.959,313.328 300.143,311.951C299.096,310.184 297.884,308.361 297.696,306.288C297.685,306.171 297.581,306.084 297.464,306.095C297.347,306.105 297.26,306.209 297.271,306.326Z" style="fill:white;"/>
    <defs>
        <linearGradient id="_Linear1" x1="0" y1="0" x2="1" y2="0" gradientUnits="userSpaceOnUse" gradientTransform="matrix(119.161,185.455,-185.455,119.161,282.517,170.35)"><stop offset="0" style="stop-color:white;stop-opacity:1"/><stop offset="1" style="stop-color:rgb(166,166,166);stop-opacity:1"/></linearGradient>
    </defs>
</svg>
