<?xml version="1.0" encoding="UTF-8" standalone="no"?>
<!DOCTYPE svg PUBLIC "-//W3C//DTD SVG 1.1//EN" "http://www.w3.org/Graphics/SVG/1.1/DTD/svg11.dtd">
<svg width="100%" height="100%" viewBox="0 0 800 600" version="1.1" xmlns="http://www.w3.org/2000/svg" xmlns:xlink="http://www.w3.org/1999/xlink" xml:space="preserve" xmlns:serif="http://www.serif.com/" style="fill-rule:evenodd;clip-rule:evenodd;stroke-linecap:round;stroke-linejoin:round;stroke-miterlimit:1.5;">
    <g>
        <path d="M327.359,27.802C345.521,23.935 364.359,21.9 383.668,21.9C532.432,21.9 653.21,142.678 653.21,291.442C653.21,440.206 532.432,560.983 383.668,560.983C234.904,560.983 114.127,440.206 114.127,291.442C114.127,288.392 114.178,285.354 114.279,282.329C136.258,372.452 217.589,439.43 314.441,439.43C428.143,439.43 520.455,347.118 520.455,233.416C520.455,124.058 435.061,34.486 327.359,27.802Z" style="fill:url(#_Linear1);"/>
        <path d="M115.261,267.801L114.187,291.431L115.261,313.988L119.02,338.693L126.002,368.768L133.521,389.177L143.725,409.585L153.929,431.068L166.282,449.328L179.171,466.514L192.598,481.015L208.173,494.441L224.285,507.868L242.545,519.683L260.805,531.498L280.676,539.554L301.085,548.147L320.956,551.907L341.364,556.74L364.995,559.963L390.774,561.574L419.775,558.889L445.554,552.981L475.093,543.851L507.317,532.573L527.725,519.683L544.374,508.942L560.486,495.515L580.894,474.57L601.303,449.865L618.489,424.623L630.116,401.525L643.315,366.053L649.639,336.63L652.939,302.671L652.114,265.824L647.714,238.051L641.665,210.897L633.965,189.999L624.891,170.201L613.617,150.678L597.394,127.03L585.501,112.25L575.327,101.526L565.428,91.902L552.504,80.353L532.72,66.669L516.811,56.673L499.354,48.225L483.022,40.904L465.177,34.71L450.395,30.345L435.33,26.966L421.392,24.714L406.891,23.165L394.08,22.602L379.578,21.898L363.669,23.165L348.605,24.291L335.688,26.263" style="fill:none;stroke:black;stroke-width:1px;"/>
        <path d="M335.688,26.263L325.971,28.328L346.049,30.321L365.511,32.67L376.584,36.193L387.154,40.22L396.213,43.575L405.105,47.266L421.345,56.978L435.435,66.481L441.381,70.895L448.528,76.323L455.211,82.611L465.227,92.318L474.16,102.694L480.414,110.786L486.392,119.393L492.44,129.186L498.075,139.408L502.335,148.341L506.115,157.275L508.084,162.473L510.558,169.619L512.482,176.107L514.406,182.704L515.616,188.916L517.045,195.348L518.309,202.797L519.519,211.703L520.234,220.444L520.508,227.976L520.673,236.016L520.399,244.482L519.574,255.23L517.65,268.823L516.55,274.705L514.076,285.288L511.822,293.699L509.403,300.393L507.204,306.935L504.456,313.532L500.25,322.726L497.061,329.488L492.773,336.91L488.962,343.446L483.207,352.122L474.543,363.161L463.449,375.915L456.511,382.776L450.354,388.318L444.9,393.024L436.643,399.566L428.726,404.887L421.25,409.824L413.641,414.134L406.077,418.059L398.38,421.71L389.188,425.668L378.71,429.34L369.298,432.287L359.765,434.596L350.177,436.487L341.733,437.763L330.958,438.851L321.15,439.511L310.771,439.643L300.304,439.247L290.87,438.279L281.942,436.916L273.497,435.509L262.975,433.09L254.003,430.583L243.679,427.141L231.716,422.304L221.974,417.697L213.068,412.936L204.976,408.142L194.344,401.017L186.295,394.86L178.83,388.67L171.397,381.853L165.031,375.552L158.06,367.658L152.408,360.709L146.493,352.99L141.743,346.14L135.96,336.553L131.671,328.647L127.493,320.544L124.525,313.65L120.841,304.249L118.104,296.695L114.849,285.315" style="fill:none;stroke:black;stroke-width:1px;"/>
    </g>
    <path d="M311.778,34.118C308.365,32.838 288.418,44.145 281.058,50.118C274.856,55.152 270.603,62.548 267.618,69.958C264.525,77.638 260.152,90.011 262.498,96.198C264.845,102.384 274.343,107.184 281.698,107.078C289.058,106.971 302.605,101.211 306.658,95.558C310.711,89.904 306.871,79.451 306.018,73.158C305.301,67.873 300.76,63.074 301.538,57.798C302.498,51.291 315.191,35.398 311.778,34.118Z" style="fill:url(#_Linear2);stroke:black;stroke-width:1px;"/>
    <path d="M356.943,64.608C361.312,67.885 368.207,74.712 372.098,80.173C375.783,85.346 378.788,91.301 380.29,97.376C381.792,103.452 382.406,110.825 381.109,116.628C379.816,122.413 376.467,129.53 372.507,132.192C368.548,134.855 361.175,134.513 357.352,132.602C353.529,130.69 351.277,124.683 349.57,120.724C347.969,117.01 347.051,112.888 347.112,108.845C347.181,104.34 348,98.196 349.98,93.69C351.959,89.184 358.445,85.771 358.991,81.812C359.537,77.852 355.441,73.483 353.256,69.933C351.166,66.537 345.269,61.4 345.884,60.512C346.498,59.625 353.798,62.25 356.943,64.608Z" style="fill:url(#_Linear3);stroke:black;stroke-width:1px;"/>
    <path d="M313.116,123.591C307.108,128.506 293.045,140.453 287.721,149.805C282.672,158.672 281.645,170.968 281.167,179.706C280.751,187.304 281.03,197.182 284.853,202.234C288.676,207.285 297.687,209.197 304.104,210.016C310.522,210.835 319.601,209.675 323.356,207.149C326.873,204.783 326.897,199.092 326.632,194.861C326.291,189.4 323.151,180.32 321.308,174.381C319.707,169.222 317.143,163.595 315.573,159.226C314.259,155.569 312.501,151.102 311.887,148.167C311.439,146.028 311.03,143.622 311.887,141.613C313.867,136.971 323.56,123.318 323.765,120.314C323.97,117.31 315.99,121.239 313.116,123.591Z" style="fill:url(#_Linear4);stroke:black;stroke-width:1px;"/>
    <path d="M351.912,151.285C346.246,150.785 344.579,169.785 342.912,179.285C341.246,188.785 339.079,201.118 341.912,208.285C344.707,215.354 354.079,222.285 359.912,222.285C365.746,222.285 374.079,214.952 376.912,208.285C379.746,201.618 380.393,190.222 376.912,182.285C372.746,172.785 357.579,151.785 351.912,151.285Z" style="fill:url(#_Linear5);stroke:black;stroke-width:1px;"/>
    <path d="M221.758,110.945C218.442,114.155 213.246,118.006 214.078,122.465C214.91,126.924 223.218,139.527 226.75,137.697C230.282,135.867 233.686,117.599 235.27,111.483C236.15,108.084 238.505,101.087 236.253,100.997C234.001,100.907 225.454,107.367 221.758,110.945Z" style="fill:url(#_Linear6);stroke:black;stroke-width:1px;"/>
    <path d="M330.296,77.65C328.003,77.213 324.999,83.111 325.054,86.17C325.108,89.228 328.33,95.563 330.624,96C332.918,96.437 338.871,91.849 338.816,88.791C338.762,85.733 332.59,78.087 330.296,77.65Z" style="fill:url(#_Linear7);stroke:black;stroke-width:1px;"/>
    <path d="M329.641,36.117C327.457,35.844 321.176,44.745 320.466,48.241C319.795,51.547 323.197,56.815 325.381,57.088C327.566,57.361 332.863,53.374 333.573,49.879C334.283,46.384 331.826,36.39 329.641,36.117Z" style="fill:url(#_Linear8);stroke:black;stroke-width:1px;"/>
    <path d="M272.297,117.053C270.604,116.616 261.648,120.221 259.518,122.296C257.797,123.973 257.825,129.068 259.518,129.505C261.211,129.942 267.546,126.993 269.676,124.918C271.655,122.989 273.99,117.49 272.297,117.053Z" style="fill:url(#_Linear9);stroke:black;stroke-width:1px;"/>
    <path d="M334.638,140.974C333.218,140.319 329.232,143.978 329.068,146.217C328.904,148.456 332.235,153.753 333.655,154.409C335.075,155.064 337.446,152.076 337.587,150.149C337.751,147.91 336.058,141.629 334.638,140.974Z" style="fill:url(#_Linear10);stroke:black;stroke-width:1px;"/>
    <path d="M390.671,67.901C388.079,68.293 389.171,73.616 390.671,75.766C392.31,78.114 397.607,82.429 400.502,81.992C403.396,81.555 409.677,75.493 408.038,73.144C406.4,70.796 393.566,67.465 390.671,67.901Z" style="fill:url(#_Linear11);stroke:black;stroke-width:1px;"/>
    <path d="M417.541,90.511C415.903,89.091 419.671,83.958 421.473,82.647C423.275,81.336 426.716,81.227 428.354,82.647C429.993,84.067 433.106,89.856 431.304,91.167C429.501,92.477 419.179,91.931 417.541,90.511Z" style="fill:url(#_Linear12);stroke:black;stroke-width:1px;"/>
    <path d="M401.157,147.527C399.191,147.964 399.846,159.761 401.157,163.584C402.287,166.879 407.055,170.902 409.021,170.465C410.987,170.028 414.065,164.205 412.954,160.962C411.643,157.139 403.123,147.091 401.157,147.527Z" style="fill:url(#_Linear13);stroke:black;stroke-width:1px;"/>
    <path d="M403.123,107.878C401.703,108.752 409.895,117.709 412.954,120.002C415.267,121.738 420.053,122.515 421.473,121.641C422.893,120.767 423.308,116.136 421.473,114.76C418.415,112.466 404.543,107.004 403.123,107.878Z" style="fill:url(#_Linear14);stroke:black;stroke-width:1px;"/>
    <path d="M476.523,128.85C476.305,127.211 468.823,119.456 465.71,117.053C463.523,115.365 459.429,113.831 457.846,114.432C456.262,115.033 454.934,118.93 456.207,120.658C457.736,122.733 463.635,125.518 467.021,126.884C470.02,128.093 476.742,130.488 476.523,128.85Z" style="fill:url(#_Linear15);stroke:black;stroke-width:1px;"/>
    <path d="M444.738,97.065C443.701,96.41 433.597,95.7 429.665,96.082C426.637,96.376 421.746,98.048 421.145,99.359C420.545,100.669 424.313,102.854 426.061,103.946C427.73,104.99 429.993,106.568 431.631,105.912C433.27,105.257 433.881,101.371 435.891,100.014C438.076,98.539 445.776,97.72 444.738,97.065Z" style="fill:url(#_Linear16);stroke:black;stroke-width:1px;"/>
    <path d="M232.939,412.002C233.365,414.242 248.299,419.682 254.059,420.322C258.752,420.844 264.299,418.189 267.499,415.842C270.508,413.636 272.725,409.229 273.259,406.242C273.769,403.386 271.996,400.518 270.699,397.922C269.312,395.149 266.859,389.069 264.939,389.602C263.019,390.136 261.419,398.242 259.179,401.122C257.214,403.648 254.455,405.657 251.499,406.882C247.125,408.696 232.512,409.762 232.939,412.002Z" style="fill:url(#_Linear17);stroke:black;stroke-width:1px;"/>
    <path d="M318.227,422.98C318.282,420.631 329.879,417.051 333.956,412.166C339.472,405.558 348.374,389.993 351.323,383.33C352.827,379.933 349.848,374.647 351.651,372.189C353.453,369.732 359.091,366.491 362.136,368.585C365.632,370.988 370.874,380.545 372.622,386.607C374.316,392.485 374.588,399.496 372.622,404.957C370.656,410.419 366.275,416.398 360.826,419.375C354.327,422.925 340.728,425.656 333.628,426.256C328.398,426.699 318.173,425.328 318.227,422.98Z" style="fill:url(#_Linear18);stroke:black;stroke-width:1px;"/>
    <path d="M448.889,373.828C446.759,372.626 471.554,336.745 475.759,325.987C477.797,320.773 476.37,314.4 474.121,309.275C470.789,301.684 462.27,284.098 455.771,280.439C449.45,276.881 439.881,281.843 435.127,287.321C430.102,293.11 429.611,314.026 425.624,315.173C421.637,316.32 411.807,302.558 411.206,294.202C410.606,285.846 413.061,270.257 422.02,265.038C433.925,258.102 469.096,251.385 482.64,252.587C492.106,253.426 498.915,266.294 503.284,272.247C506.636,276.814 509.064,282.642 508.855,288.304C508.582,295.676 505.032,309.002 501.646,316.484C498.727,322.934 493.332,327.986 488.539,333.196C479.746,342.753 451.019,375.029 448.889,373.828Z" style="fill:url(#_Linear19);stroke:black;stroke-width:1px;"/>
    <path d="M504.24,202.884C504.285,206.888 494.159,189.877 489.325,186.363C485.331,183.46 479.907,181.688 475.232,181.8C470.557,181.912 464.517,185.513 461.273,187.034C459.239,187.988 457.017,192.796 455.77,190.927C454.16,188.511 448.42,177.953 451.61,172.539C455.01,166.768 469.93,157.999 476.171,156.299C480.748,155.052 486.608,158.276 489.056,162.338C493.734,170.103 504.196,198.88 504.24,202.884Z" style="fill:url(#_Linear20);stroke:black;stroke-width:1px;"/>
    <path d="M130.225,312.888C128.859,314.417 135.085,321.462 138.089,322.391C141.093,323.319 146.882,319.988 148.247,318.459C149.49,317.066 148.064,313.767 146.281,313.216C143.277,312.287 131.59,311.359 130.225,312.888Z" style="fill:url(#_Linear21);stroke:black;stroke-width:1px;"/>
    <path d="M155.456,354.831C153.927,354.776 161.3,365.972 164.303,368.266C166.735,370.123 174.953,370.833 173.478,368.593C172.004,366.354 156.985,354.885 155.456,354.831Z" style="fill:url(#_Linear22);stroke:black;stroke-width:1px;"/>
    <path d="M186.782,382.487C187.306,384.89 190.408,391.181 192.549,393.497C194.279,395.368 197.081,396.303 199.627,396.381C202.511,396.468 209.938,394.851 209.851,394.021C209.763,393.191 201.549,392.885 199.103,391.4C196.989,390.116 196.7,387.052 195.171,385.108C193.554,383.055 190.802,379.516 189.403,379.079C188.036,378.652 186.477,381.087 186.782,382.487Z" style="fill:url(#_Linear23);stroke:black;stroke-width:1px;"/>
    <path d="M150.187,334.601C151.017,336.829 153.42,341.373 156.478,342.989C159.536,344.606 167.925,344.868 168.537,344.3C169.148,343.732 162.157,342.083 160.148,339.582C158.007,336.916 157.133,329.97 155.692,328.309C154.731,327.203 152.415,328.572 151.497,329.62C150.58,330.669 149.587,332.992 150.187,334.601Z" style="fill:url(#_Linear24);stroke:black;stroke-width:1px;"/>
    <path d="M278.44,393.19C278.79,391.923 283.465,389.432 284.207,387.423C284.95,385.413 281.586,381.874 282.897,381.131C284.207,380.388 290.761,381.393 292.072,382.966C293.382,384.539 292.399,388.586 290.761,390.568C289.101,392.578 284.164,394.588 282.11,395.025C280.772,395.309 278.091,394.457 278.44,393.19Z" style="fill:url(#_Linear25);stroke:black;stroke-width:1px;"/>
    <path d="M245.541,403.151C247.333,403.763 249.91,403.719 251.571,403.151C253.212,402.59 254.66,401.26 255.503,399.743C256.377,398.171 257.338,395.112 256.813,393.714C256.289,392.316 253.012,390.831 252.357,391.355C251.702,391.879 253.711,395.593 252.881,396.86C252.051,398.127 249.295,398.54 247.376,398.957C245.367,399.394 241.129,398.782 240.823,399.481C240.517,400.18 243.75,402.54 245.541,403.151Z" style="fill:url(#_Linear26);stroke:black;stroke-width:1px;"/>
    <path d="M432.859,313.744C431.698,314.563 431.698,320.571 432.859,322.346C434.019,324.121 438.662,325.213 439.822,324.394C440.983,323.574 440.983,319.205 439.822,317.43C438.662,315.655 434.019,312.925 432.859,313.744Z" style="fill:url(#_Linear27);stroke:black;stroke-width:1px;"/>
    <path d="M378.792,384.195C378.052,379.015 377.29,372.795 374.696,369.04C372.113,365.301 365.343,363.988 363.227,361.667C361.73,360.025 361.043,356.615 361.998,355.113C362.954,353.612 366.648,351.815 368.962,352.656C372.716,354.021 381.523,359.824 384.526,363.305C386.819,365.963 386.651,370.051 386.984,373.545C387.393,377.846 388.281,384.605 386.984,389.11C385.706,393.55 380.567,401.398 379.202,400.579C377.836,399.76 379.543,389.452 378.792,384.195Z" style="fill:url(#_Linear28);stroke:black;stroke-width:1px;"/>
    <path d="M439.266,191.898C437.387,193.252 434.635,196.704 433.499,199.238C432.417,201.651 432.625,204.612 432.45,207.102C432.285,209.455 432.018,211.86 432.45,214.18C432.931,216.758 434.198,222.612 435.334,222.568C436.47,222.525 438.436,216.845 439.266,213.918C440.082,211.04 440.14,207.845 440.314,205.005C440.481,202.301 439.572,199.194 440.314,196.878C441.056,194.565 444.946,191.941 444.771,191.111C444.596,190.281 440.769,190.814 439.266,191.898Z" style="fill:url(#_Linear29);stroke:black;stroke-width:1px;"/>
    <defs>
        <linearGradient id="_Linear1" x1="0" y1="0" x2="1" y2="0" gradientUnits="userSpaceOnUse" gradientTransform="matrix(-152.68,458.742,-458.742,-152.68,475.143,88.2996)"><stop offset="0" style="stop-color:rgb(218,243,255);stop-opacity:1"/><stop offset="0.22" style="stop-color:rgb(191,235,255);stop-opacity:1"/><stop offset="0.68" style="stop-color:rgb(14,178,255);stop-opacity:1"/><stop offset="1" style="stop-color:rgb(0,174,255);stop-opacity:1"/></linearGradient>
        <linearGradient id="_Linear2" x1="0" y1="0" x2="1" y2="0" gradientUnits="userSpaceOnUse" gradientTransform="matrix(-42.5983,218.316,-218.316,-42.5983,310.538,37.5629)"><stop offset="0" style="stop-color:white;stop-opacity:1"/><stop offset="0.26" style="stop-color:rgb(95,182,247);stop-opacity:1"/><stop offset="1" style="stop-color:rgb(0,146,255);stop-opacity:1"/></linearGradient>
        <linearGradient id="_Linear3" x1="0" y1="0" x2="1" y2="0" gradientUnits="userSpaceOnUse" gradientTransform="matrix(-42.5983,218.316,-218.316,-42.5983,310.538,37.5629)"><stop offset="0" style="stop-color:white;stop-opacity:1"/><stop offset="0.26" style="stop-color:rgb(95,182,247);stop-opacity:1"/><stop offset="1" style="stop-color:rgb(0,146,255);stop-opacity:1"/></linearGradient>
        <linearGradient id="_Linear4" x1="0" y1="0" x2="1" y2="0" gradientUnits="userSpaceOnUse" gradientTransform="matrix(-45.0559,282.06,-282.06,-45.0559,333.066,125.94)"><stop offset="0" style="stop-color:white;stop-opacity:1"/><stop offset="0.26" style="stop-color:rgb(95,182,247);stop-opacity:1"/><stop offset="1" style="stop-color:rgb(0,146,255);stop-opacity:1"/></linearGradient>
        <linearGradient id="_Linear5" x1="0" y1="0" x2="1" y2="0" gradientUnits="userSpaceOnUse" gradientTransform="matrix(-45.0559,282.06,-282.06,-45.0559,333.066,125.94)"><stop offset="0" style="stop-color:white;stop-opacity:1"/><stop offset="0.26" style="stop-color:rgb(95,182,247);stop-opacity:1"/><stop offset="1" style="stop-color:rgb(0,146,255);stop-opacity:1"/></linearGradient>
        <linearGradient id="_Linear6" x1="0" y1="0" x2="1" y2="0" gradientUnits="userSpaceOnUse" gradientTransform="matrix(35.8399,-182.027,182.027,35.8399,292.9,216.258)"><stop offset="0" style="stop-color:rgb(92,198,255);stop-opacity:1"/><stop offset="1" style="stop-color:white;stop-opacity:1"/></linearGradient>
        <linearGradient id="_Linear7" x1="0" y1="0" x2="1" y2="0" gradientUnits="userSpaceOnUse" gradientTransform="matrix(35.8399,-182.027,182.027,35.8399,292.9,216.258)"><stop offset="0" style="stop-color:rgb(92,198,255);stop-opacity:1"/><stop offset="1" style="stop-color:white;stop-opacity:1"/></linearGradient>
        <linearGradient id="_Linear8" x1="0" y1="0" x2="1" y2="0" gradientUnits="userSpaceOnUse" gradientTransform="matrix(35.8399,-182.027,182.027,35.8399,292.9,216.258)"><stop offset="0" style="stop-color:rgb(92,198,255);stop-opacity:1"/><stop offset="1" style="stop-color:white;stop-opacity:1"/></linearGradient>
        <linearGradient id="_Linear9" x1="0" y1="0" x2="1" y2="0" gradientUnits="userSpaceOnUse" gradientTransform="matrix(35.8399,-182.027,182.027,35.8399,292.9,216.258)"><stop offset="0" style="stop-color:rgb(92,198,255);stop-opacity:1"/><stop offset="1" style="stop-color:white;stop-opacity:1"/></linearGradient>
        <linearGradient id="_Linear10" x1="0" y1="0" x2="1" y2="0" gradientUnits="userSpaceOnUse" gradientTransform="matrix(35.8399,-182.027,182.027,35.8399,292.9,216.258)"><stop offset="0" style="stop-color:rgb(92,198,255);stop-opacity:1"/><stop offset="1" style="stop-color:white;stop-opacity:1"/></linearGradient>
        <linearGradient id="_Linear11" x1="0" y1="0" x2="1" y2="0" gradientUnits="userSpaceOnUse" gradientTransform="matrix(35.8399,-182.027,182.027,35.8399,292.9,216.258)"><stop offset="0" style="stop-color:rgb(92,198,255);stop-opacity:1"/><stop offset="1" style="stop-color:white;stop-opacity:1"/></linearGradient>
        <linearGradient id="_Linear12" x1="0" y1="0" x2="1" y2="0" gradientUnits="userSpaceOnUse" gradientTransform="matrix(35.8399,-182.027,182.027,35.8399,292.9,216.258)"><stop offset="0" style="stop-color:rgb(92,198,255);stop-opacity:1"/><stop offset="1" style="stop-color:white;stop-opacity:1"/></linearGradient>
        <linearGradient id="_Linear13" x1="0" y1="0" x2="1" y2="0" gradientUnits="userSpaceOnUse" gradientTransform="matrix(35.8399,-182.027,182.027,35.8399,292.9,216.258)"><stop offset="0" style="stop-color:rgb(92,198,255);stop-opacity:1"/><stop offset="1" style="stop-color:white;stop-opacity:1"/></linearGradient>
        <linearGradient id="_Linear14" x1="0" y1="0" x2="1" y2="0" gradientUnits="userSpaceOnUse" gradientTransform="matrix(35.8399,-182.027,182.027,35.8399,292.9,216.258)"><stop offset="0" style="stop-color:rgb(92,198,255);stop-opacity:1"/><stop offset="1" style="stop-color:white;stop-opacity:1"/></linearGradient>
        <linearGradient id="_Linear15" x1="0" y1="0" x2="1" y2="0" gradientUnits="userSpaceOnUse" gradientTransform="matrix(35.8399,-182.027,182.027,35.8399,292.9,216.258)"><stop offset="0" style="stop-color:rgb(92,198,255);stop-opacity:1"/><stop offset="1" style="stop-color:white;stop-opacity:1"/></linearGradient>
        <linearGradient id="_Linear16" x1="0" y1="0" x2="1" y2="0" gradientUnits="userSpaceOnUse" gradientTransform="matrix(35.8399,-182.027,182.027,35.8399,292.9,216.258)"><stop offset="0" style="stop-color:rgb(92,198,255);stop-opacity:1"/><stop offset="1" style="stop-color:white;stop-opacity:1"/></linearGradient>
        <linearGradient id="_Linear17" x1="0" y1="0" x2="1" y2="0" gradientUnits="userSpaceOnUse" gradientTransform="matrix(-0.639988,325.135,-325.135,-0.639988,457.524,132.553)"><stop offset="0" style="stop-color:rgb(227,241,255);stop-opacity:1"/><stop offset="0.19" style="stop-color:rgb(93,185,255);stop-opacity:1"/><stop offset="0.36" style="stop-color:rgb(176,222,255);stop-opacity:1"/><stop offset="0.76" style="stop-color:rgb(35,170,255);stop-opacity:1"/><stop offset="1" style="stop-color:rgb(62,183,255);stop-opacity:1"/></linearGradient>
        <linearGradient id="_Linear18" x1="0" y1="0" x2="1" y2="0" gradientUnits="userSpaceOnUse" gradientTransform="matrix(-0.639988,325.135,-325.135,-0.639988,457.524,132.553)"><stop offset="0" style="stop-color:rgb(227,241,255);stop-opacity:1"/><stop offset="0.19" style="stop-color:rgb(93,185,255);stop-opacity:1"/><stop offset="0.36" style="stop-color:rgb(176,222,255);stop-opacity:1"/><stop offset="0.76" style="stop-color:rgb(35,170,255);stop-opacity:1"/><stop offset="1" style="stop-color:rgb(62,183,255);stop-opacity:1"/></linearGradient>
        <linearGradient id="_Linear19" x1="0" y1="0" x2="1" y2="0" gradientUnits="userSpaceOnUse" gradientTransform="matrix(-0.639988,325.135,-325.135,-0.639988,457.524,132.553)"><stop offset="0" style="stop-color:rgb(227,241,255);stop-opacity:1"/><stop offset="0.19" style="stop-color:rgb(93,185,255);stop-opacity:1"/><stop offset="0.36" style="stop-color:rgb(176,222,255);stop-opacity:1"/><stop offset="0.76" style="stop-color:rgb(35,170,255);stop-opacity:1"/><stop offset="1" style="stop-color:rgb(62,183,255);stop-opacity:1"/></linearGradient>
        <linearGradient id="_Linear20" x1="0" y1="0" x2="1" y2="0" gradientUnits="userSpaceOnUse" gradientTransform="matrix(-0.639988,325.135,-325.135,-0.639988,457.524,132.553)"><stop offset="0" style="stop-color:rgb(227,241,255);stop-opacity:1"/><stop offset="0.19" style="stop-color:rgb(93,185,255);stop-opacity:1"/><stop offset="0.36" style="stop-color:rgb(176,222,255);stop-opacity:1"/><stop offset="0.76" style="stop-color:rgb(35,170,255);stop-opacity:1"/><stop offset="1" style="stop-color:rgb(62,183,255);stop-opacity:1"/></linearGradient>
        <linearGradient id="_Linear21" x1="0" y1="0" x2="1" y2="0" gradientUnits="userSpaceOnUse" gradientTransform="matrix(-0.639988,325.135,-325.135,-0.639988,457.524,132.553)"><stop offset="0" style="stop-color:rgb(227,241,255);stop-opacity:1"/><stop offset="0.19" style="stop-color:rgb(93,185,255);stop-opacity:1"/><stop offset="0.36" style="stop-color:rgb(176,222,255);stop-opacity:1"/><stop offset="0.76" style="stop-color:rgb(35,170,255);stop-opacity:1"/><stop offset="1" style="stop-color:rgb(62,183,255);stop-opacity:1"/></linearGradient>
        <linearGradient id="_Linear22" x1="0" y1="0" x2="1" y2="0" gradientUnits="userSpaceOnUse" gradientTransform="matrix(-0.639988,325.135,-325.135,-0.639988,457.524,132.553)"><stop offset="0" style="stop-color:rgb(227,241,255);stop-opacity:1"/><stop offset="0.19" style="stop-color:rgb(93,185,255);stop-opacity:1"/><stop offset="0.36" style="stop-color:rgb(176,222,255);stop-opacity:1"/><stop offset="0.76" style="stop-color:rgb(35,170,255);stop-opacity:1"/><stop offset="1" style="stop-color:rgb(62,183,255);stop-opacity:1"/></linearGradient>
        <linearGradient id="_Linear23" x1="0" y1="0" x2="1" y2="0" gradientUnits="userSpaceOnUse" gradientTransform="matrix(-0.639988,325.135,-325.135,-0.639988,457.524,132.553)"><stop offset="0" style="stop-color:rgb(227,241,255);stop-opacity:1"/><stop offset="0.19" style="stop-color:rgb(93,185,255);stop-opacity:1"/><stop offset="0.36" style="stop-color:rgb(176,222,255);stop-opacity:1"/><stop offset="0.76" style="stop-color:rgb(35,170,255);stop-opacity:1"/><stop offset="1" style="stop-color:rgb(62,183,255);stop-opacity:1"/></linearGradient>
        <linearGradient id="_Linear24" x1="0" y1="0" x2="1" y2="0" gradientUnits="userSpaceOnUse" gradientTransform="matrix(-0.639988,325.135,-325.135,-0.639988,457.524,132.553)"><stop offset="0" style="stop-color:rgb(227,241,255);stop-opacity:1"/><stop offset="0.19" style="stop-color:rgb(93,185,255);stop-opacity:1"/><stop offset="0.36" style="stop-color:rgb(176,222,255);stop-opacity:1"/><stop offset="0.76" style="stop-color:rgb(35,170,255);stop-opacity:1"/><stop offset="1" style="stop-color:rgb(62,183,255);stop-opacity:1"/></linearGradient>
        <linearGradient id="_Linear25" x1="0" y1="0" x2="1" y2="0" gradientUnits="userSpaceOnUse" gradientTransform="matrix(-0.639988,325.135,-325.135,-0.639988,457.524,132.553)"><stop offset="0" style="stop-color:rgb(227,241,255);stop-opacity:1"/><stop offset="0.19" style="stop-color:rgb(93,185,255);stop-opacity:1"/><stop offset="0.36" style="stop-color:rgb(176,222,255);stop-opacity:1"/><stop offset="0.76" style="stop-color:rgb(35,170,255);stop-opacity:1"/><stop offset="1" style="stop-color:rgb(62,183,255);stop-opacity:1"/></linearGradient>
        <linearGradient id="_Linear26" x1="0" y1="0" x2="1" y2="0" gradientUnits="userSpaceOnUse" gradientTransform="matrix(-0.639988,325.135,-325.135,-0.639988,457.524,132.553)"><stop offset="0" style="stop-color:rgb(227,241,255);stop-opacity:1"/><stop offset="0.19" style="stop-color:rgb(93,185,255);stop-opacity:1"/><stop offset="0.36" style="stop-color:rgb(176,222,255);stop-opacity:1"/><stop offset="0.76" style="stop-color:rgb(35,170,255);stop-opacity:1"/><stop offset="1" style="stop-color:rgb(62,183,255);stop-opacity:1"/></linearGradient>
        <linearGradient id="_Linear27" x1="0" y1="0" x2="1" y2="0" gradientUnits="userSpaceOnUse" gradientTransform="matrix(-0.639988,325.135,-325.135,-0.639988,457.524,132.553)"><stop offset="0" style="stop-color:rgb(227,241,255);stop-opacity:1"/><stop offset="0.19" style="stop-color:rgb(93,185,255);stop-opacity:1"/><stop offset="0.36" style="stop-color:rgb(176,222,255);stop-opacity:1"/><stop offset="0.76" style="stop-color:rgb(35,170,255);stop-opacity:1"/><stop offset="1" style="stop-color:rgb(62,183,255);stop-opacity:1"/></linearGradient>
        <linearGradient id="_Linear28" x1="0" y1="0" x2="1" y2="0" gradientUnits="userSpaceOnUse" gradientTransform="matrix(-0.639988,325.135,-325.135,-0.639988,457.524,132.553)"><stop offset="0" style="stop-color:rgb(227,241,255);stop-opacity:1"/><stop offset="0.19" style="stop-color:rgb(93,185,255);stop-opacity:1"/><stop offset="0.36" style="stop-color:rgb(176,222,255);stop-opacity:1"/><stop offset="0.76" style="stop-color:rgb(35,170,255);stop-opacity:1"/><stop offset="1" style="stop-color:rgb(62,183,255);stop-opacity:1"/></linearGradient>
        <linearGradient id="_Linear29" x1="0" y1="0" x2="1" y2="0" gradientUnits="userSpaceOnUse" gradientTransform="matrix(-0.639988,325.135,-325.135,-0.639988,457.524,132.553)"><stop offset="0" style="stop-color:rgb(227,241,255);stop-opacity:1"/><stop offset="0.19" style="stop-color:rgb(93,185,255);stop-opacity:1"/><stop offset="0.36" style="stop-color:rgb(176,222,255);stop-opacity:1"/><stop offset="0.76" style="stop-color:rgb(35,170,255);stop-opacity:1"/><stop offset="1" style="stop-color:rgb(62,183,255);stop-opacity:1"/></linearGradient>
    </defs>
</svg>
